<svg width="1440" height="810" viewBox="0 0 1440 810" fill="none" xmlns="http://www.w3.org/2000/svg">
<path fill-rule="evenodd" clip-rule="evenodd" d="M143.444 780.988C84.7835 781.795 32.0174 764.046 -12.4004 721.531L-10.2256 719.579C33.4933 761.425 85.3607 778.898 143.231 778.101C201.171 777.304 265.153 758.187 332.925 726.756C468.476 663.891 618.668 552.023 765.209 440.247C776.411 431.703 787.591 423.16 798.742 414.639C933.385 311.749 1063.73 212.147 1175.14 154.762C1235.46 123.698 1290.42 104.895 1337.66 104.753C1361.31 104.682 1383.05 109.288 1402.55 119.396C1422.04 129.505 1439.2 145.069 1453.74 166.787L1451.13 168.214C1436.83 146.87 1420.07 131.711 1401.14 121.898C1382.22 112.085 1361.04 107.57 1337.84 107.639C1291.38 107.779 1236.95 126.304 1176.76 157.304C1065.59 214.563 935.452 314.007 800.726 416.959C789.599 425.461 778.44 433.988 767.259 442.517C620.775 554.248 470.33 666.327 334.432 729.353C266.48 760.867 202.034 780.181 143.444 780.988ZM143.444 748.988C84.7835 749.795 32.0174 732.046 -12.4004 689.531L-10.2256 687.579C33.4933 729.425 85.3607 746.898 143.231 746.101C201.171 745.304 265.153 726.187 332.925 694.756C468.476 631.891 618.668 520.023 765.209 408.247C776.411 399.703 787.591 391.16 798.742 382.639C933.385 279.749 1063.73 180.147 1175.14 122.762C1235.46 91.6976 1290.42 72.8947 1337.66 72.7528C1361.31 72.6817 1383.05 77.2876 1402.55 87.3959C1422.04 97.5046 1439.2 113.069 1453.74 134.787L1451.13 136.214C1436.83 114.87 1420.07 99.7113 1401.14 89.8982C1382.22 80.0847 1361.04 75.5695 1337.84 75.6393C1291.38 75.7788 1236.95 94.3044 1176.76 125.304C1065.59 182.563 935.452 282.007 800.726 384.959C789.599 393.461 778.44 401.988 767.259 410.517C620.775 522.248 470.33 634.327 334.432 697.353C266.48 728.867 202.034 748.181 143.444 748.988ZM143.444 689.988C84.7835 690.795 32.0174 673.046 -12.4004 630.531L-10.2256 628.579C33.4933 670.425 85.3607 687.898 143.231 687.101C201.171 686.304 265.153 667.187 332.925 635.756C468.476 572.891 618.668 461.023 765.209 349.247C776.411 340.703 787.591 332.16 798.742 323.639C933.385 220.749 1063.73 121.147 1175.14 63.7617C1235.46 32.6976 1290.42 13.8947 1337.66 13.7528C1361.31 13.6817 1383.05 18.2876 1402.55 28.3959C1422.04 38.5046 1439.2 54.0686 1453.74 75.7868L1451.13 77.2141C1436.83 55.8699 1420.07 40.7113 1401.14 30.8982C1382.22 21.0847 1361.04 16.5695 1337.84 16.6393C1291.38 16.7788 1236.95 35.3044 1176.76 66.3037C1065.59 123.563 935.452 223.007 800.726 325.959C789.599 334.461 778.44 342.988 767.259 351.517C620.775 463.248 470.33 575.327 334.432 638.353C266.48 669.867 202.034 689.181 143.444 689.988ZM143.444 718.988C84.7835 719.795 32.0174 702.046 -12.4004 659.531L-10.2256 657.579C33.4933 699.425 85.3607 716.898 143.231 716.101C201.171 715.304 265.153 696.187 332.925 664.756C468.476 601.891 618.668 490.023 765.209 378.247C776.411 369.703 787.591 361.16 798.742 352.639C933.385 249.749 1063.73 150.147 1175.14 92.7617C1235.46 61.6976 1290.42 42.8947 1337.66 42.7528C1361.31 42.6817 1383.05 47.2876 1402.55 57.3959C1422.04 67.5046 1439.2 83.0686 1453.74 104.787L1451.13 106.214C1436.83 84.8699 1420.07 69.7113 1401.14 59.8982C1382.22 50.0847 1361.04 45.5695 1337.84 45.6393C1291.38 45.7788 1236.95 64.3044 1176.76 95.3037C1065.59 152.563 935.452 252.007 800.726 354.959C789.599 363.461 778.44 371.988 767.259 380.517C620.775 492.248 470.33 604.327 334.432 667.353C266.48 698.867 202.034 718.181 143.444 718.988ZM143.444 657.988C84.7835 658.795 32.0174 641.046 -12.4004 598.531L-10.2256 596.579C33.4933 638.425 85.3607 655.898 143.231 655.101C201.171 654.304 265.153 635.187 332.925 603.756C468.476 540.891 618.668 429.023 765.209 317.247C776.411 308.703 787.591 300.16 798.742 291.639C933.385 188.749 1063.73 89.1471 1175.14 31.7617C1235.46 0.697617 1290.42 -18.1053 1337.66 -18.2472C1361.31 -18.3183 1383.05 -13.7124 1402.55 -3.60414C1422.04 6.50457 1439.2 22.0686 1453.74 43.7868L1451.13 45.2141C1436.83 23.8699 1420.07 8.71134 1401.14 -1.10181C1382.22 -10.9153 1361.04 -15.4305 1337.84 -15.3607C1291.38 -15.2212 1236.95 3.30441 1176.76 34.3037C1065.59 91.5632 935.452 191.007 800.726 293.959C789.599 302.461 778.44 310.988 767.259 319.517C620.775 431.248 470.33 543.327 334.432 606.353C266.48 637.867 202.034 657.181 143.444 657.988ZM143.444 623.988C84.7835 624.795 32.0174 607.046 -12.4004 564.531L-10.2256 562.579C33.4933 604.425 85.3607 621.898 143.231 621.101C201.171 620.304 265.153 601.187 332.925 569.756C468.476 506.891 618.668 395.023 765.209 283.247C776.411 274.703 787.591 266.16 798.742 257.639C933.385 154.749 1063.73 55.1471 1175.14 -2.23832C1235.46 -33.3024 1290.42 -52.1053 1337.66 -52.2472C1361.31 -52.3183 1383.05 -47.7124 1402.55 -37.6041C1422.04 -27.4954 1439.2 -11.9314 1453.74 9.78683L1451.13 11.2141C1436.83 -10.1301 1420.07 -25.2887 1401.14 -35.1018C1382.22 -44.9153 1361.04 -49.4305 1337.84 -49.3607C1291.38 -49.2212 1236.95 -30.6956 1176.76 0.303692C1065.59 57.5632 935.452 157.007 800.726 259.959C789.599 268.461 778.44 276.988 767.259 285.517C620.775 397.248 470.33 509.327 334.432 572.353C266.48 603.867 202.034 623.181 143.444 623.988ZM143.444 591.988C84.7835 592.795 32.0174 575.046 -12.4004 532.531L-10.2256 530.579C33.4933 572.425 85.3607 589.898 143.231 589.101C201.171 588.304 265.153 569.187 332.925 537.756C468.476 474.891 618.668 363.023 765.209 251.247C776.411 242.703 787.591 234.16 798.742 225.639C933.385 122.749 1063.73 23.1471 1175.14 -34.2383C1235.46 -65.3024 1290.42 -84.1053 1337.66 -84.2472C1361.31 -84.3183 1383.05 -79.7124 1402.55 -69.6041C1422.04 -59.4954 1439.2 -43.9314 1453.74 -22.2132L1451.13 -20.7859C1436.83 -42.1301 1420.07 -57.2887 1401.14 -67.1018C1382.22 -76.9153 1361.04 -81.4305 1337.84 -81.3607C1291.38 -81.2212 1236.95 -62.6956 1176.76 -31.6963C1065.59 25.5632 935.452 125.007 800.726 227.959C789.599 236.461 778.44 244.988 767.259 253.517C620.775 365.248 470.33 477.327 334.432 540.353C266.48 571.867 202.034 591.181 143.444 591.988ZM143.444 532.988C84.7835 533.795 32.0174 516.046 -12.4004 473.531L-10.2256 471.579C33.4933 513.425 85.3607 530.898 143.231 530.101C201.171 529.304 265.153 510.187 332.925 478.756C468.476 415.891 618.668 304.023 765.209 192.247C776.411 183.703 787.591 175.16 798.742 166.639C933.385 63.749 1063.73 -35.8529 1175.14 -93.2383C1235.46 -124.302 1290.42 -143.105 1337.66 -143.247C1361.31 -143.318 1383.05 -138.712 1402.55 -128.604C1422.04 -118.495 1439.2 -102.931 1453.74 -81.2132L1451.13 -79.7859C1436.83 -101.13 1420.07 -116.289 1401.14 -126.102C1382.22 -135.915 1361.04 -140.43 1337.84 -140.361C1291.38 -140.221 1236.95 -121.696 1176.76 -90.6963C1065.59 -33.4368 935.452 66.0074 800.726 168.959C789.599 177.461 778.44 185.988 767.259 194.517C620.775 306.248 470.33 418.327 334.432 481.353C266.48 512.867 202.034 532.181 143.444 532.988ZM143.444 561.988C84.7835 562.795 32.0174 545.046 -12.4004 502.531L-10.2256 500.579C33.4933 542.425 85.3607 559.898 143.231 559.101C201.171 558.304 265.153 539.187 332.925 507.756C468.476 444.891 618.668 333.023 765.209 221.247C776.411 212.703 787.591 204.16 798.742 195.639C933.385 92.749 1063.73 -6.85286 1175.14 -64.2383C1235.46 -95.3024 1290.42 -114.105 1337.66 -114.247C1361.31 -114.318 1383.05 -109.712 1402.55 -99.6041C1422.04 -89.4954 1439.2 -73.9314 1453.74 -52.2132L1451.13 -50.7859C1436.83 -72.1301 1420.07 -87.2887 1401.14 -97.1018C1382.22 -106.915 1361.04 -111.43 1337.84 -111.361C1291.38 -111.221 1236.95 -92.6956 1176.76 -61.6963C1065.59 -4.43682 935.452 95.0074 800.726 197.959C789.599 206.461 778.44 214.988 767.259 223.517C620.775 335.248 470.33 447.327 334.432 510.353C266.48 541.867 202.034 561.181 143.444 561.988ZM143.444 500.988C84.7835 501.795 32.0174 484.046 -12.4004 441.531L-10.2256 439.579C33.4933 481.425 85.3607 498.898 143.231 498.101C201.171 497.304 265.153 478.187 332.925 446.756C468.476 383.891 618.668 272.023 765.209 160.247C776.411 151.703 787.591 143.16 798.742 134.639C933.385 31.749 1063.73 -67.8529 1175.14 -125.238C1235.46 -156.302 1290.42 -175.105 1337.66 -175.247C1361.31 -175.318 1383.05 -170.712 1402.55 -160.604C1422.04 -150.495 1439.2 -134.931 1453.74 -113.213L1451.13 -111.786C1436.83 -133.13 1420.07 -148.289 1401.14 -158.102C1382.22 -167.915 1361.04 -172.43 1337.84 -172.361C1291.38 -172.221 1236.95 -153.696 1176.76 -122.696C1065.59 -65.4368 935.452 34.0074 800.726 136.959C789.599 145.461 778.44 153.988 767.259 162.517C620.775 274.248 470.33 386.327 334.432 449.353C266.48 480.867 202.034 500.181 143.444 500.988ZM143.444 1087.99C84.7835 1088.8 32.0174 1071.05 -12.4004 1028.53L-10.2256 1026.58C33.4933 1068.43 85.3607 1085.9 143.231 1085.1C201.171 1084.3 265.153 1065.19 332.925 1033.76C468.476 970.891 618.668 859.023 765.209 747.247C776.411 738.703 787.591 730.16 798.742 721.638C933.385 618.749 1063.73 519.147 1175.14 461.762C1235.46 430.698 1290.42 411.895 1337.66 411.753C1361.31 411.682 1383.05 416.288 1402.55 426.396C1422.04 436.505 1439.2 452.069 1453.74 473.787L1451.13 475.214C1436.83 453.87 1420.07 438.711 1401.14 428.898C1382.22 419.085 1361.04 414.569 1337.84 414.639C1291.38 414.779 1236.95 433.304 1176.76 464.304C1065.59 521.563 935.452 621.007 800.726 723.959C789.599 732.461 778.44 740.988 767.259 749.517C620.775 861.248 470.33 973.327 334.432 1036.35C266.48 1067.87 202.034 1087.18 143.444 1087.99ZM143.444 1055.99C84.7835 1056.8 32.0174 1039.05 -12.4004 996.531L-10.2256 994.579C33.4933 1036.43 85.3607 1053.9 143.231 1053.1C201.171 1052.3 265.153 1033.19 332.925 1001.76C468.476 938.891 618.668 827.023 765.209 715.247C776.411 706.703 787.591 698.16 798.742 689.638C933.385 586.749 1063.73 487.147 1175.14 429.762C1235.46 398.698 1290.42 379.895 1337.66 379.753C1361.31 379.682 1383.05 384.288 1402.55 394.396C1422.04 404.505 1439.2 420.069 1453.74 441.787L1451.13 443.214C1436.83 421.87 1420.07 406.711 1401.14 396.898C1382.22 387.085 1361.04 382.569 1337.84 382.639C1291.38 382.779 1236.95 401.304 1176.76 432.304C1065.59 489.563 935.452 589.007 800.726 691.959C789.599 700.461 778.44 708.988 767.259 717.517C620.775 829.248 470.33 941.327 334.432 1004.35C266.48 1035.87 202.034 1055.18 143.444 1055.99ZM143.444 996.988C84.7835 997.795 32.0174 980.046 -12.4004 937.531L-10.2256 935.579C33.4933 977.425 85.3607 994.898 143.231 994.101C201.171 993.304 265.153 974.187 332.925 942.756C468.476 879.891 618.668 768.023 765.209 656.247C776.411 647.703 787.591 639.16 798.742 630.638C933.385 527.749 1063.73 428.147 1175.14 370.762C1235.46 339.698 1290.42 320.895 1337.66 320.753C1361.31 320.682 1383.05 325.288 1402.55 335.396C1422.04 345.505 1439.2 361.069 1453.74 382.787L1451.13 384.214C1436.83 362.87 1420.07 347.711 1401.14 337.898C1382.22 328.085 1361.04 323.569 1337.84 323.639C1291.38 323.779 1236.95 342.304 1176.76 373.304C1065.59 430.563 935.452 530.007 800.726 632.959C789.599 641.461 778.44 649.988 767.259 658.517C620.775 770.248 470.33 882.327 334.432 945.352C266.48 976.867 202.034 996.181 143.444 996.988ZM143.444 1025.99C84.7835 1026.8 32.0174 1009.05 -12.4004 966.531L-10.2256 964.579C33.4933 1006.43 85.3607 1023.9 143.231 1023.1C201.171 1022.3 265.153 1003.19 332.925 971.756C468.476 908.891 618.668 797.023 765.209 685.247C776.411 676.703 787.591 668.16 798.742 659.638C933.385 556.749 1063.73 457.147 1175.14 399.762C1235.46 368.698 1290.42 349.895 1337.66 349.753C1361.31 349.682 1383.05 354.288 1402.55 364.396C1422.04 374.505 1439.2 390.069 1453.74 411.787L1451.13 413.214C1436.83 391.87 1420.07 376.711 1401.14 366.898C1382.22 357.085 1361.04 352.569 1337.84 352.639C1291.38 352.779 1236.95 371.304 1176.76 402.304C1065.59 459.563 935.452 559.007 800.726 661.959C789.599 670.461 778.44 678.988 767.259 687.517C620.775 799.248 470.33 911.327 334.432 974.352C266.48 1005.87 202.034 1025.18 143.444 1025.99ZM143.444 964.988C84.7835 965.795 32.0174 948.046 -12.4004 905.531L-10.2256 903.579C33.4933 945.425 85.3607 962.898 143.231 962.101C201.171 961.304 265.153 942.187 332.925 910.756C468.476 847.891 618.668 736.023 765.209 624.247C776.411 615.703 787.591 607.16 798.742 598.638C933.385 495.749 1063.73 396.147 1175.14 338.762C1235.46 307.698 1290.42 288.895 1337.66 288.753C1361.31 288.682 1383.05 293.288 1402.55 303.396C1422.04 313.505 1439.2 329.069 1453.74 350.787L1451.13 352.214C1436.83 330.87 1420.07 315.711 1401.14 305.898C1382.22 296.085 1361.04 291.569 1337.84 291.639C1291.38 291.779 1236.95 310.304 1176.76 341.304C1065.59 398.563 935.452 498.007 800.726 600.959C789.599 609.461 778.44 617.988 767.259 626.517C620.775 738.248 470.33 850.327 334.432 913.352C266.48 944.867 202.034 964.181 143.444 964.988ZM143.444 930.988C84.7835 931.795 32.0174 914.046 -12.4004 871.531L-10.2256 869.579C33.4933 911.425 85.3607 928.898 143.231 928.101C201.171 927.304 265.153 908.187 332.925 876.756C468.476 813.891 618.668 702.023 765.209 590.247C776.411 581.703 787.591 573.16 798.742 564.638C933.385 461.749 1063.73 362.147 1175.14 304.762C1235.46 273.698 1290.42 254.895 1337.66 254.753C1361.31 254.682 1383.05 259.288 1402.55 269.396C1422.04 279.505 1439.2 295.069 1453.74 316.787L1451.13 318.214C1436.83 296.87 1420.07 281.711 1401.14 271.898C1382.22 262.085 1361.04 257.569 1337.84 257.639C1291.38 257.779 1236.95 276.304 1176.76 307.304C1065.59 364.563 935.452 464.007 800.726 566.959C789.599 575.461 778.44 583.988 767.259 592.517C620.775 704.248 470.33 816.327 334.432 879.352C266.48 910.867 202.034 930.181 143.444 930.988ZM143.444 898.988C84.7835 899.795 32.0174 882.046 -12.4004 839.531L-10.2256 837.579C33.4933 879.425 85.3607 896.898 143.231 896.101C201.171 895.304 265.153 876.187 332.925 844.756C468.476 781.891 618.668 670.023 765.209 558.247C776.411 549.703 787.591 541.16 798.742 532.639C933.385 429.749 1063.73 330.147 1175.14 272.762C1235.46 241.698 1290.42 222.895 1337.66 222.753C1361.31 222.682 1383.05 227.288 1402.55 237.396C1422.04 247.505 1439.2 263.069 1453.74 284.787L1451.13 286.214C1436.83 264.87 1420.07 249.711 1401.14 239.898C1382.22 230.085 1361.04 225.57 1337.84 225.639C1291.38 225.779 1236.95 244.304 1176.76 275.304C1065.59 332.563 935.452 432.007 800.726 534.959C789.599 543.461 778.44 551.988 767.259 560.517C620.775 672.248 470.33 784.327 334.432 847.353C266.48 878.867 202.034 898.181 143.444 898.988ZM143.444 839.988C84.7835 840.795 32.0174 823.046 -12.4004 780.531L-10.2256 778.579C33.4933 820.425 85.3607 837.898 143.231 837.101C201.171 836.304 265.153 817.187 332.925 785.756C468.476 722.891 618.668 611.023 765.209 499.247C776.411 490.703 787.591 482.16 798.742 473.639C933.385 370.749 1063.73 271.147 1175.14 213.762C1235.46 182.698 1290.42 163.895 1337.66 163.753C1361.31 163.682 1383.05 168.288 1402.55 178.396C1422.04 188.505 1439.2 204.069 1453.74 225.787L1451.13 227.214C1436.83 205.87 1420.07 190.711 1401.14 180.898C1382.22 171.085 1361.04 166.57 1337.84 166.639C1291.38 166.779 1236.95 185.304 1176.76 216.304C1065.59 273.563 935.452 373.007 800.726 475.959C789.599 484.461 778.44 492.988 767.259 501.517C620.775 613.248 470.33 725.327 334.432 788.353C266.48 819.867 202.034 839.181 143.444 839.988ZM143.444 868.988C84.7835 869.795 32.0174 852.046 -12.4004 809.531L-10.2256 807.579C33.4933 849.425 85.3607 866.898 143.231 866.101C201.171 865.304 265.153 846.187 332.925 814.756C468.476 751.891 618.668 640.023 765.209 528.247C776.411 519.703 787.591 511.16 798.742 502.639C933.385 399.749 1063.73 300.147 1175.14 242.762C1235.46 211.698 1290.42 192.895 1337.66 192.753C1361.31 192.682 1383.05 197.288 1402.55 207.396C1422.04 217.505 1439.2 233.069 1453.74 254.787L1451.13 256.214C1436.83 234.87 1420.07 219.711 1401.14 209.898C1382.22 200.085 1361.04 195.57 1337.84 195.639C1291.38 195.779 1236.95 214.304 1176.76 245.304C1065.59 302.563 935.452 402.007 800.726 504.959C789.599 513.461 778.44 521.988 767.259 530.517C620.775 642.248 470.33 754.327 334.432 817.353C266.48 848.867 202.034 868.181 143.444 868.988ZM143.444 807.988C84.7835 808.795 32.0174 791.046 -12.4004 748.531L-10.2256 746.579C33.4933 788.425 85.3607 805.898 143.231 805.101C201.171 804.304 265.153 785.187 332.925 753.756C468.476 690.891 618.668 579.023 765.209 467.247C776.411 458.703 787.591 450.16 798.742 441.639C933.385 338.749 1063.73 239.147 1175.14 181.762C1235.46 150.698 1290.42 131.895 1337.66 131.753C1361.31 131.682 1383.05 136.288 1402.55 146.396C1422.04 156.505 1439.2 172.069 1453.74 193.787L1451.13 195.214C1436.83 173.87 1420.07 158.711 1401.14 148.898C1382.22 139.085 1361.04 134.57 1337.84 134.639C1291.38 134.779 1236.95 153.304 1176.76 184.304C1065.59 241.563 935.452 341.007 800.726 443.959C789.599 452.461 778.44 460.988 767.259 469.517C620.775 581.248 470.33 693.327 334.432 756.353C266.48 787.867 202.034 807.181 143.444 807.988Z" fill="#4880FF"/>
</svg>
