<svg width="336" height="167" viewBox="0 0 336 167" fill="none" xmlns="http://www.w3.org/2000/svg">
<path d="M295 167.5C295 133.685 281.567 101.255 257.656 77.3439C233.745 53.433 201.315 40 167.5 40C133.685 40 101.255 53.433 77.3439 77.3439C53.433 101.255 40 133.685 40 167.5L167.5 167.5H295Z" fill="white" fill-opacity="0.85"/>
<g filter="url(#filter0_d_876_1505)">
<path d="M286 168C286 152.373 282.935 136.898 276.98 122.461C271.025 108.023 262.296 94.9045 251.292 83.8543L167.5 168H286Z" fill="black" fill-opacity="0.13" shape-rendering="crispEdges"/>
</g>
<g filter="url(#filter1_d_876_1505)">
<path d="M251.421 83.6224C240.367 72.6409 227.258 63.9442 212.843 58.0289C198.428 52.1135 182.989 49.0954 167.407 49.1468L167.799 167.798L251.421 83.6224Z" fill="black" fill-opacity="0.13" shape-rendering="crispEdges"/>
</g>
<g filter="url(#filter2_d_876_1505)">
<path d="M167.5 49C151.938 49 136.529 52.078 122.152 58.0583C107.775 64.0387 94.7116 72.8041 83.7078 83.8543L167.5 168L167.5 49Z" fill="black" fill-opacity="0.13" shape-rendering="crispEdges"/>
</g>
<g filter="url(#filter3_d_876_1505)">
<path d="M83.901 83.9004C72.8832 94.9182 64.1433 107.998 58.1805 122.394C52.2177 136.789 49.1486 152.218 49.1486 167.8H167.801L83.901 83.9004Z" fill="black" fill-opacity="0.13" shape-rendering="crispEdges"/>
</g>
<path d="M268 167.579C268 154.446 265.413 141.443 260.388 129.31C255.362 117.178 247.997 106.154 238.711 96.8679L168 167.579L268 167.579Z" fill="#FA3E3E"/>
<path d="M238.711 96.868C229.425 87.5821 218.401 80.2161 206.268 75.1907C194.136 70.1652 181.132 67.5786 168 67.5786V167.579L238.711 96.868Z" fill="#FF9500"/>
<path d="M168 67.5786C154.868 67.5786 141.864 70.1652 129.732 75.1907C117.599 80.2162 106.575 87.5821 97.2893 96.868L168 167.579V67.5786Z" fill="#03E2B6"/>
<path d="M97.2893 96.868C78.5357 115.622 68 141.057 68 167.579L168 167.579L97.2893 96.868Z" fill="#1ABC9C"/>
<path d="M227.798 137.055C231.348 136.125 235.056 135.973 238.67 136.608L251.961 138.945L243.955 146.483C240.754 149.496 236.851 151.66 232.6 152.777L215.171 157.359C210.794 158.509 206.311 155.906 205.14 151.535C203.96 147.132 206.588 142.609 210.998 141.454L227.798 137.055Z" fill="#263238"/>
<path d="M233 167.5C233 150.394 226.204 133.988 214.108 121.892C202.012 109.796 185.606 103 168.5 103C151.394 103 134.988 109.796 122.892 121.892C110.796 133.988 104 150.394 104 167.5L168.5 167.5H233Z" fill="#263238"/>
<path d="M148.065 147.831V151.646H136.652V147.831H148.065ZM138.211 138.961V161H133.277V138.961H138.211ZM151.471 138.961V161H146.552V138.961H151.471ZM160.387 138.961V161H155.467V138.961H160.387ZM182.123 149.36V158.245C181.76 158.659 181.205 159.103 180.458 159.577C179.721 160.051 178.778 160.46 177.627 160.803C176.477 161.136 175.105 161.303 173.51 161.303C172.067 161.303 170.755 161.071 169.575 160.606C168.394 160.132 167.38 159.441 166.532 158.533C165.685 157.614 165.029 156.494 164.564 155.172C164.11 153.85 163.883 152.337 163.883 150.631V149.33C163.883 147.624 164.11 146.111 164.564 144.789C165.019 143.467 165.659 142.352 166.487 141.443C167.314 140.525 168.298 139.829 169.438 139.354C170.579 138.88 171.84 138.643 173.223 138.643C175.19 138.643 176.8 138.961 178.051 139.597C179.303 140.222 180.251 141.09 180.897 142.2C181.553 143.31 181.957 144.587 182.108 146.03H177.355C177.254 145.293 177.052 144.657 176.75 144.123C176.457 143.588 176.038 143.179 175.493 142.896C174.948 142.604 174.242 142.458 173.374 142.458C172.678 142.458 172.047 142.604 171.482 142.896C170.927 143.179 170.458 143.608 170.074 144.183C169.691 144.758 169.398 145.475 169.196 146.333C168.994 147.18 168.894 148.169 168.894 149.299V150.631C168.894 151.762 168.994 152.756 169.196 153.613C169.408 154.471 169.716 155.188 170.12 155.763C170.523 156.328 171.033 156.757 171.648 157.049C172.274 157.342 173.001 157.488 173.828 157.488C174.474 157.488 175.019 157.438 175.463 157.337C175.907 157.226 176.27 157.09 176.553 156.928C176.835 156.757 177.047 156.6 177.188 156.459V152.796H173.268V149.36H182.123ZM200.287 147.831V151.646H188.874V147.831H200.287ZM190.433 138.961V161H185.499V138.961H190.433ZM203.693 138.961V161H198.773V138.961H203.693Z" fill="white"/>
<path d="M186.955 55.6914L188.321 55.978L188.859 61.1447L191.428 56.6294L192.794 56.916L188.97 63.378L187.861 63.1455L186.955 55.6914ZM186.123 55.5171L187.538 55.8137L186.682 61.202L186.341 62.8269L184.664 62.4751L186.123 55.5171ZM192.211 56.7937L193.631 57.0913L192.172 64.0494L190.49 63.6967L190.83 62.0718L192.211 56.7937Z" fill="#263238"/>
<path d="M200.154 62.5425L200.072 62.8188C199.919 63.3401 199.707 63.7867 199.437 64.1586C199.172 64.5283 198.863 64.8207 198.511 65.0358C198.16 65.2477 197.781 65.3783 197.372 65.4274C196.965 65.4734 196.543 65.4319 196.106 65.3028C195.666 65.1728 195.286 64.9774 194.965 64.7166C194.649 64.4535 194.4 64.1372 194.217 63.7675C194.039 63.3957 193.937 62.9821 193.912 62.5267C193.891 62.069 193.957 61.5795 194.111 61.0582L194.193 60.7819C194.347 60.2605 194.557 59.8135 194.823 59.4407C195.092 59.0688 195.401 58.7764 195.749 58.5635C196.101 58.3484 196.481 58.2179 196.888 58.1718C197.3 58.1236 197.725 58.1645 198.165 58.2945C198.603 58.4236 198.979 58.6197 199.295 58.8827C199.615 59.1436 199.865 59.4599 200.043 59.8317C200.223 60.2004 200.325 60.6141 200.349 61.0726C200.373 61.5312 200.308 62.0211 200.154 62.5425ZM198.405 62.3264L198.49 62.0408C198.589 61.7036 198.647 61.3982 198.664 61.1247C198.684 60.849 198.664 60.6072 198.603 60.3991C198.542 60.1911 198.442 60.019 198.302 59.8827C198.167 59.7442 197.994 59.6441 197.785 59.5823C197.567 59.5178 197.363 59.5068 197.174 59.5494C196.986 59.5888 196.811 59.6799 196.65 59.8224C196.489 59.965 196.342 60.1575 196.21 60.4C196.081 60.6404 195.967 60.9291 195.867 61.2663L195.783 61.5519C195.684 61.886 195.623 62.1904 195.6 62.4652C195.58 62.7378 195.599 62.9792 195.656 63.1894C195.716 63.4005 195.813 63.5753 195.949 63.7138C196.088 63.8532 196.266 63.9552 196.485 64.0197C196.694 64.0815 196.893 64.0911 197.082 64.0485C197.271 64.0059 197.447 63.9118 197.609 63.7661C197.773 63.6214 197.922 63.4293 198.054 63.1899C198.189 62.9483 198.307 62.6605 198.405 62.3264Z" fill="#263238"/>
<path d="M202.267 67.2393L200.789 66.6889L201.259 65.4568L202.728 66.0038C203.033 66.1174 203.318 66.1401 203.583 66.0721C203.851 66.0052 204.094 65.8472 204.311 65.5983C204.533 65.3475 204.724 65.0085 204.883 64.5815L204.99 64.2932C205.109 63.9729 205.182 63.6803 205.207 63.4154C205.237 63.1487 205.221 62.9117 205.16 62.7046C205.099 62.4944 204.992 62.3141 204.84 62.1636C204.691 62.0142 204.499 61.8958 204.264 61.8083L202.781 61.2563L203.243 60.0162L204.725 60.5682C205.177 60.7363 205.561 60.9681 205.879 61.2633C206.2 61.5567 206.445 61.8979 206.612 62.2869C206.784 62.674 206.872 63.0906 206.877 63.5367C206.885 63.9809 206.801 64.4395 206.625 64.9123L206.521 65.1914C206.346 65.6612 206.11 66.063 205.812 66.3966C205.517 66.7315 205.179 66.9896 204.799 67.1711C204.419 67.3526 204.012 67.4512 203.579 67.4671C203.15 67.481 202.713 67.4051 202.267 67.2393ZM204.19 60.3689L201.709 67.0314L200.103 66.4333L202.584 59.7708L204.19 60.3689Z" fill="#263238"/>
<path d="M211.341 69.5962L210.804 70.8002L207.344 69.2567L207.881 68.0527L211.341 69.5962ZM210.797 63.0126L207.901 69.5054L206.336 68.8072L209.232 62.3144L210.797 63.0126ZM212.104 66.686L211.585 67.8499L208.571 66.5053L209.09 65.3415L212.104 66.686ZM213.713 64.3134L213.174 65.5219L209.701 63.9724L210.24 62.764L213.713 64.3134Z" fill="#263238"/>
<path d="M214.937 64.9085L217.417 66.2042C217.902 66.4574 218.285 66.7497 218.567 67.0808C218.85 67.412 219.014 67.7695 219.059 68.1532C219.108 68.5385 219.024 68.9388 218.806 69.3543C218.618 69.7149 218.404 69.987 218.165 70.1706C217.926 70.3541 217.664 70.4725 217.379 70.5257C217.099 70.5774 216.799 70.5845 216.481 70.5468L215.836 70.568L213.755 69.4804L214.359 68.3031L215.9 69.1081C216.093 69.2091 216.271 69.2581 216.434 69.2552C216.597 69.2523 216.744 69.2039 216.874 69.1102C217.008 69.015 217.122 68.878 217.215 68.6991C217.31 68.5173 217.358 68.3442 217.36 68.1797C217.361 68.0152 217.315 67.8644 217.222 67.7273C217.131 67.5918 216.992 67.475 216.804 67.377L215.843 66.875L213.164 72.0033L211.645 71.2096L214.937 64.9085ZM215.094 73.0118L215.157 69.4967L216.771 70.3292L216.755 73.7971L216.721 73.862L215.094 73.0118Z" fill="#263238"/>
<path d="M222.686 70.9176L218.293 74.8222L216.719 73.8684L222.637 69.1413L223.635 69.746L222.686 70.9176ZM221.004 76.4641L222.427 70.7608L223.009 69.3665L224.019 69.9787L222.582 77.4205L221.004 76.4641ZM222.319 74.161L221.634 75.2928L218.514 73.4029L219.2 72.2711L222.319 74.161Z" fill="#263238"/>
<path d="M229.206 73.4291L225.151 79.2684L223.743 78.2908L227.798 72.4515L229.206 73.4291ZM230.963 74.649L230.208 75.7359L225.327 72.3462L226.082 71.2594L230.963 74.649Z" fill="#263238"/>
<path d="M231.975 82.8237L231.158 83.8583L228.184 81.5097L229.001 80.4752L231.975 82.8237ZM233.07 76.3091L228.663 81.888L227.318 80.8257L231.725 75.2468L233.07 76.3091ZM233.432 80.1914L232.642 81.1915L230.052 79.1456L230.841 78.1455L233.432 80.1914ZM235.576 78.2884L234.756 79.3268L231.771 76.9692L232.591 75.9308L235.576 78.2884Z" fill="#263238"/>
<path d="M267.966 124.375L266.77 124.928L265.238 121.618L266.435 121.064L267.966 124.375ZM269.236 120.398L262.784 123.382L262.064 121.827L268.517 118.842L269.236 120.398ZM271.011 124.236L264.559 127.22L263.841 125.669L270.294 122.685L271.011 124.236Z" fill="#263238"/>
<path d="M272.304 127.49L265.704 130.133L265.069 128.547L271.668 125.903L272.304 127.49Z" fill="#263238"/>
<path d="M271.583 135.343L268.821 136.29C268.656 136.219 268.46 136.09 268.234 135.902C268.012 135.717 267.789 135.463 267.565 135.141C267.341 134.818 267.146 134.415 266.98 133.932C266.827 133.485 266.759 133.056 266.777 132.644C266.797 132.231 266.901 131.846 267.088 131.49C267.28 131.135 267.553 130.818 267.908 130.538C268.267 130.26 268.708 130.031 269.231 129.852L269.605 129.724C270.129 129.544 270.618 129.456 271.073 129.458C271.528 129.46 271.938 129.542 272.303 129.702C272.672 129.865 272.988 130.095 273.252 130.394C273.517 130.695 273.722 131.055 273.865 131.474C274.077 132.093 274.151 132.63 274.087 133.086C274.026 133.54 273.857 133.927 273.581 134.245C273.308 134.562 272.954 134.82 272.519 135.017L271.986 133.46C272.197 133.354 272.365 133.231 272.489 133.092C272.618 132.955 272.695 132.794 272.721 132.609C272.751 132.424 272.722 132.206 272.637 131.957C272.57 131.763 272.468 131.6 272.33 131.469C272.193 131.34 272.021 131.249 271.814 131.197C271.609 131.143 271.37 131.128 271.097 131.153C270.824 131.181 270.519 131.253 270.18 131.369L269.797 131.501C269.461 131.616 269.176 131.744 268.943 131.886C268.71 132.031 268.529 132.19 268.399 132.362C268.272 132.536 268.197 132.727 268.172 132.935C268.151 133.145 268.183 133.374 268.267 133.62C268.326 133.792 268.391 133.935 268.461 134.049C268.534 134.162 268.606 134.251 268.676 134.316C268.751 134.383 268.816 134.432 268.87 134.461L269.914 134.103L269.528 132.976L270.641 132.595L271.583 135.343Z" fill="#263238"/>
<path d="M273.687 141.231L272.411 141.564L271.488 138.036L272.764 137.702L273.687 141.231ZM275.639 137.541L268.761 139.339L268.327 137.681L275.205 135.883L275.639 137.541ZM276.709 141.632L269.831 143.43L269.398 141.777L276.276 139.978L276.709 141.632Z" fill="#263238"/>
<path d="M120.054 72.148L120.625 73.3366L117.385 74.8917L116.814 73.7032L120.054 72.148ZM114.859 68.2183L117.935 74.6276L116.39 75.3692L113.313 68.96L114.859 68.2183Z" fill="black"/>
<path d="M125.281 67.4395L125.389 67.7066C125.593 68.2105 125.706 68.6918 125.726 69.1505C125.749 69.605 125.689 70.0259 125.548 70.4134C125.405 70.7978 125.189 71.1363 124.9 71.4289C124.61 71.7184 124.253 71.9487 123.831 72.1197C123.406 72.292 122.986 72.3756 122.574 72.3707C122.162 72.3615 121.77 72.2692 121.397 72.0936C121.026 71.9138 120.689 71.6535 120.386 71.3126C120.084 70.9675 119.832 70.543 119.628 70.0391L119.52 69.7721C119.316 69.2682 119.202 68.7875 119.178 68.33C119.158 67.8713 119.217 67.4503 119.357 67.0671C119.499 66.6796 119.715 66.3411 120.005 66.0516C120.297 65.7578 120.655 65.5248 121.081 65.3525C121.503 65.1815 121.92 65.1006 122.331 65.1098C122.744 65.1147 123.136 65.2071 123.507 65.3869C123.877 65.5636 124.215 65.824 124.519 66.1679C124.823 66.5118 125.077 66.9356 125.281 67.4395ZM123.778 68.3589L123.666 68.0828C123.534 67.7569 123.39 67.4819 123.232 67.2577C123.077 67.0292 122.91 66.8525 122.733 66.7275C122.556 66.6025 122.371 66.5301 122.176 66.5104C121.984 66.4864 121.787 66.5153 121.585 66.5972C121.373 66.6827 121.207 66.801 121.086 66.952C120.963 67.1 120.883 67.2798 120.846 67.4916C120.809 67.7033 120.814 67.9454 120.861 68.2178C120.909 68.486 121 68.783 121.132 69.1089L121.244 69.385C121.374 69.7078 121.516 69.9841 121.669 70.2138C121.823 70.4392 121.988 70.6165 122.163 70.7458C122.341 70.8738 122.527 70.9498 122.719 70.9737C122.914 70.9965 123.118 70.9651 123.329 70.8796C123.531 70.7978 123.693 70.6813 123.814 70.5303C123.936 70.3793 124.015 70.1964 124.051 69.9817C124.09 69.7657 124.086 69.523 124.04 69.2536C123.996 68.98 123.909 68.6817 123.778 68.3589Z" fill="black"/>
<path d="M129.009 69.3827L128.439 62.7892L129.246 62.5381L129.848 62.9284L130.357 69.6381L129.466 69.9154L129.009 69.3827ZM126.728 63.322L129.807 69.1855L129.69 69.8457L128.66 70.1665L125.106 63.8272L126.728 63.322ZM132.351 68.3573L131.558 61.8181L133.176 61.3143L133.849 68.5508L132.823 68.8702L132.351 68.3573ZM129.828 62.3566L133.147 68.1353L133.047 68.8005L132.156 69.0778L128.731 63.2661L129.026 62.6063L129.828 62.3566Z" fill="black"/>
<path d="M59.7298 135.143L66.6014 136.967L66.163 138.619L61.2422 139.915L65.518 141.049L65.0784 142.706L58.2069 140.882L58.6465 139.226L63.5673 137.93L59.2915 136.795L59.7298 135.143Z" fill="#263238"/>
<path d="M65.4792 128.787L65.7512 128.882C66.2647 129.06 66.7007 129.293 67.0594 129.58C67.416 129.862 67.6934 130.184 67.8914 130.546C68.0865 130.907 68.1988 131.293 68.2284 131.703C68.255 132.112 68.1935 132.532 68.0437 132.962C67.8929 133.395 67.6796 133.766 67.4038 134.073C67.126 134.376 66.7982 134.61 66.4203 134.775C66.0404 134.936 65.6223 135.018 65.1662 135.021C64.7081 135.021 64.2224 134.931 63.7089 134.752L63.4368 134.658C62.9234 134.479 62.4868 134.248 62.1271 133.964C61.7685 133.677 61.4911 133.355 61.295 132.997C61.097 132.636 60.9846 132.25 60.958 131.841C60.9295 131.428 60.9906 131.005 61.1414 130.571C61.2911 130.141 61.5049 129.774 61.7827 129.471C62.0585 129.163 62.3863 128.929 62.7662 128.769C63.1431 128.607 63.5611 128.525 64.0202 128.522C64.4794 128.52 64.9657 128.608 65.4792 128.787ZM65.1801 130.523L64.8988 130.425C64.5667 130.31 64.2645 130.238 63.9921 130.208C63.7176 130.175 63.4751 130.184 63.2644 130.234C63.0537 130.285 62.877 130.377 62.7342 130.51C62.5895 130.639 62.4813 130.806 62.4096 131.012C62.3347 131.227 62.3141 131.431 62.3476 131.621C62.3781 131.811 62.4607 131.99 62.5954 132.157C62.7301 132.325 62.9155 132.481 63.1514 132.625C63.3853 132.765 63.6683 132.893 64.0004 133.008L64.2817 133.106C64.6106 133.22 64.9118 133.296 65.1852 133.332C65.4565 133.365 65.6986 133.358 65.9112 133.311C66.125 133.261 66.3043 133.172 66.449 133.043C66.5949 132.911 66.7052 132.738 66.7801 132.522C66.8518 132.316 66.8708 132.118 66.8373 131.927C66.8037 131.736 66.7181 131.556 66.5802 131.388C66.4435 131.216 66.2587 131.059 66.0259 130.916C65.791 130.769 65.5091 130.638 65.1801 130.523Z" fill="#263238"/>
<path d="M63.8678 123.744L65.0396 121.203C65.2686 120.707 65.5415 120.309 65.8584 120.011C66.1752 119.713 66.5242 119.531 66.9052 119.467C67.2876 119.399 67.6916 119.464 68.1173 119.66C68.4868 119.831 68.7691 120.031 68.9642 120.26C69.1594 120.49 69.2905 120.746 69.3576 121.028C69.4232 121.306 69.445 121.604 69.423 121.924L69.476 122.567L68.4924 124.699L67.2867 124.154L68.0147 122.576C68.1061 122.378 68.1463 122.197 68.1353 122.034C68.1244 121.872 68.0688 121.728 67.9688 121.603C67.8671 121.473 67.7246 121.366 67.5414 121.282C67.3552 121.196 67.1799 121.156 67.0155 121.163C66.8511 121.17 66.7028 121.223 66.5705 121.323C66.4395 121.421 66.3298 121.566 66.2412 121.758L65.7872 122.742L71.0414 125.165L70.3236 126.722L63.8678 123.744ZM71.9535 123.188L68.4395 123.299L69.1914 121.645L72.6559 121.49L72.7224 121.521L71.9535 123.188Z" fill="#263238"/>
<path d="M67.5498 116.157L73.8548 119.442L73.0651 120.958L66.7601 117.673L67.5498 116.157Z" fill="#263238"/>
<path d="M74.5148 114.437C74.4192 114.382 74.3252 114.346 74.2328 114.33C74.1377 114.312 74.0342 114.321 73.9225 114.358C73.8108 114.395 73.6794 114.465 73.5284 114.569C73.3762 114.669 73.195 114.812 72.9848 114.999C72.7376 115.217 72.4849 115.418 72.2266 115.603C71.9656 115.786 71.7018 115.932 71.4353 116.041C71.1659 116.147 70.895 116.199 70.6225 116.195C70.3471 116.189 70.0716 116.106 69.7959 115.945C69.5314 115.791 69.328 115.594 69.1858 115.353C69.0407 115.111 68.955 114.84 68.9286 114.543C68.9011 114.24 68.9315 113.923 69.0197 113.59C69.1051 113.256 69.2468 112.918 69.4449 112.578C69.7068 112.127 70.0164 111.777 70.3737 111.525C70.7298 111.269 71.1079 111.127 71.5078 111.1C71.9066 111.069 72.3001 111.166 72.6884 111.392L71.8314 112.865C71.6766 112.775 71.5213 112.727 71.3655 112.723C71.2113 112.717 71.0636 112.757 70.9224 112.844C70.7812 112.931 70.655 113.071 70.5436 113.262C70.4356 113.448 70.3729 113.62 70.3555 113.78C70.3381 113.939 70.3584 114.079 70.4164 114.199C70.4716 114.318 70.5555 114.41 70.668 114.476C70.7609 114.53 70.86 114.553 70.9654 114.547C71.0697 114.536 71.182 114.502 71.3024 114.444C71.4244 114.383 71.5551 114.301 71.6944 114.197C71.8353 114.091 71.9847 113.967 72.1424 113.825C72.4364 113.559 72.7218 113.337 72.9986 113.16C73.2742 112.977 73.5443 112.846 73.809 112.767C74.0725 112.683 74.3331 112.656 74.5909 112.685C74.8503 112.712 75.1095 112.8 75.3683 112.951C75.6441 113.111 75.8577 113.307 76.0094 113.539C76.161 113.77 76.2532 114.029 76.2861 114.315C76.3162 114.6 76.2882 114.904 76.2021 115.227C76.116 115.55 75.9731 115.883 75.7733 116.226C75.59 116.541 75.3697 116.829 75.1125 117.09C74.8541 117.346 74.5698 117.55 74.2598 117.701C73.9469 117.85 73.6162 117.923 73.2678 117.92C72.9182 117.913 72.5619 117.803 72.199 117.592L73.0634 116.107C73.2434 116.211 73.4093 116.276 73.5609 116.3C73.7125 116.324 73.8533 116.312 73.9833 116.263C74.1105 116.213 74.2303 116.13 74.3426 116.015C74.4521 115.898 74.5577 115.752 74.6592 115.578C74.7688 115.389 74.8305 115.222 74.8442 115.075C74.855 114.927 74.831 114.8 74.7721 114.694C74.7103 114.587 74.6246 114.501 74.5148 114.437Z" fill="#263238"/>
<path d="M72.4559 107.921L78.3526 111.893L77.3952 113.314L71.4985 109.343L72.4559 107.921ZM74.8262 104.402L76.2767 108.699L76.8386 111.02L75.3599 110.401L74.6395 108.674L73.6452 106.156L74.8262 104.402ZM79.5909 110.054L75.9086 109.788L75.8392 108.134L80.7229 108.373L79.5909 110.054Z" fill="#263238"/>
<defs>
<filter id="filter0_d_876_1505" x="161.5" y="75.8545" width="126.5" height="92.1455" filterUnits="userSpaceOnUse" color-interpolation-filters="sRGB">
<feFlood flood-opacity="0" result="BackgroundImageFix"/>
<feColorMatrix in="SourceAlpha" type="matrix" values="0 0 0 0 0 0 0 0 0 0 0 0 0 0 0 0 0 0 127 0" result="hardAlpha"/>
<feOffset dx="-2" dy="-4"/>
<feGaussianBlur stdDeviation="2"/>
<feComposite in2="hardAlpha" operator="out"/>
<feColorMatrix type="matrix" values="0 0 0 0 0 0 0 0 0 0 0 0 0 0 0 0 0 0 0.25 0"/>
<feBlend mode="normal" in2="BackgroundImageFix" result="effect1_dropShadow_876_1505"/>
<feBlend mode="normal" in="SourceGraphic" in2="effect1_dropShadow_876_1505" result="shape"/>
</filter>
<filter id="filter1_d_876_1505" x="161.408" y="41.1465" width="92.0137" height="126.652" filterUnits="userSpaceOnUse" color-interpolation-filters="sRGB">
<feFlood flood-opacity="0" result="BackgroundImageFix"/>
<feColorMatrix in="SourceAlpha" type="matrix" values="0 0 0 0 0 0 0 0 0 0 0 0 0 0 0 0 0 0 127 0" result="hardAlpha"/>
<feOffset dx="-2" dy="-4"/>
<feGaussianBlur stdDeviation="2"/>
<feComposite in2="hardAlpha" operator="out"/>
<feColorMatrix type="matrix" values="0 0 0 0 0 0 0 0 0 0 0 0 0 0 0 0 0 0 0.25 0"/>
<feBlend mode="normal" in2="BackgroundImageFix" result="effect1_dropShadow_876_1505"/>
<feBlend mode="normal" in="SourceGraphic" in2="effect1_dropShadow_876_1505" result="shape"/>
</filter>
<filter id="filter2_d_876_1505" x="77.707" y="41" width="91.793" height="127" filterUnits="userSpaceOnUse" color-interpolation-filters="sRGB">
<feFlood flood-opacity="0" result="BackgroundImageFix"/>
<feColorMatrix in="SourceAlpha" type="matrix" values="0 0 0 0 0 0 0 0 0 0 0 0 0 0 0 0 0 0 127 0" result="hardAlpha"/>
<feOffset dx="-2" dy="-4"/>
<feGaussianBlur stdDeviation="2"/>
<feComposite in2="hardAlpha" operator="out"/>
<feColorMatrix type="matrix" values="0 0 0 0 0 0 0 0 0 0 0 0 0 0 0 0 0 0 0.25 0"/>
<feBlend mode="normal" in2="BackgroundImageFix" result="effect1_dropShadow_876_1505"/>
<feBlend mode="normal" in="SourceGraphic" in2="effect1_dropShadow_876_1505" result="shape"/>
</filter>
<filter id="filter3_d_876_1505" x="43.1484" y="75.9004" width="126.652" height="91.9004" filterUnits="userSpaceOnUse" color-interpolation-filters="sRGB">
<feFlood flood-opacity="0" result="BackgroundImageFix"/>
<feColorMatrix in="SourceAlpha" type="matrix" values="0 0 0 0 0 0 0 0 0 0 0 0 0 0 0 0 0 0 127 0" result="hardAlpha"/>
<feOffset dx="-2" dy="-4"/>
<feGaussianBlur stdDeviation="2"/>
<feComposite in2="hardAlpha" operator="out"/>
<feColorMatrix type="matrix" values="0 0 0 0 0 0 0 0 0 0 0 0 0 0 0 0 0 0 0.25 0"/>
<feBlend mode="normal" in2="BackgroundImageFix" result="effect1_dropShadow_876_1505"/>
<feBlend mode="normal" in="SourceGraphic" in2="effect1_dropShadow_876_1505" result="shape"/>
</filter>
</defs>
</svg>
