<svg width="255" height="128" viewBox="0 0 255 128" fill="none" xmlns="http://www.w3.org/2000/svg">
<path d="M255 127.5C255 93.6849 241.567 61.2548 217.656 37.3439C193.745 13.433 161.315 2.55297e-06 127.5 0C93.6849 -2.55297e-06 61.2548 13.433 37.3439 37.3439C13.433 61.2548 5.10594e-06 93.6849 0 127.5L127.5 127.5H255Z" fill="white" fill-opacity="0.85"/>
<g filter="url(#filter0_d_854_5903)">
<path d="M246 128C246 112.373 242.935 96.8984 236.98 82.4607C231.025 68.0229 222.296 54.9045 211.292 43.8543L127.5 128H246Z" fill="black" fill-opacity="0.13" shape-rendering="crispEdges"/>
</g>
<g filter="url(#filter1_d_854_5903)">
<path d="M211.421 43.6224C200.367 32.6409 187.258 23.9442 172.843 18.0289C158.428 12.1135 142.989 9.09541 127.407 9.14678L127.799 127.798L211.421 43.6224Z" fill="black" fill-opacity="0.13" shape-rendering="crispEdges"/>
</g>
<g filter="url(#filter2_d_854_5903)">
<path d="M127.5 9.00001C111.938 9.00001 96.5291 12.078 82.152 18.0583C67.7749 24.0387 54.7116 32.8041 43.7078 43.8543L127.5 128L127.5 9.00001Z" fill="black" fill-opacity="0.13" shape-rendering="crispEdges"/>
</g>
<g filter="url(#filter3_d_854_5903)">
<path d="M43.901 43.9004C32.8832 54.9182 24.1433 67.9984 18.1805 82.3939C12.2177 96.7894 9.14862 112.218 9.14862 127.8H127.801L43.901 43.9004Z" fill="black" fill-opacity="0.13" shape-rendering="crispEdges"/>
</g>
<path d="M228 127.579C228 114.446 225.413 101.443 220.388 89.3103C215.362 77.1777 207.997 66.1538 198.711 56.8679L128 127.579L228 127.579Z" fill="#FA3E3E"/>
<path d="M198.711 56.868C189.425 47.5821 178.401 40.2161 166.268 35.1907C154.136 30.1652 141.132 27.5786 128 27.5786V127.579L198.711 56.868Z" fill="#FF9500"/>
<path d="M128 27.5786C114.868 27.5786 101.864 30.1652 89.7317 35.1907C77.5991 40.2162 66.5752 47.5821 57.2893 56.868L128 127.579V27.5786Z" fill="#03E2B6"/>
<path d="M57.2893 56.868C38.5357 75.6216 28 101.057 28 127.579L128 127.579L57.2893 56.868Z" fill="#1ABC9C"/>
<path d="M145.544 63.9395C147.053 60.5952 149.267 57.6162 152.033 55.2059L162.208 46.3407L163.034 57.3062C163.365 61.6891 162.593 66.085 160.788 70.093L153.391 86.5256C151.533 90.6521 146.69 92.5016 142.555 90.6636C138.389 88.812 136.525 83.9243 138.4 79.7691L145.544 63.9395Z" fill="#263238"/>
<path d="M193 127.5C193 110.394 186.204 93.9877 174.108 81.8916C162.012 69.7955 145.606 63 128.5 63C111.394 63 94.9877 69.7955 82.8916 81.8916C70.7955 93.9877 64 110.394 64 127.5L128.5 127.5H193Z" fill="#263238"/>
<path d="M78.4199 102.781H81.0566L84.4746 112.947L87.8828 102.781H90.5195L85.5391 117H83.4004L78.4199 102.781ZM76.8965 102.781H79.582L80.0801 113.318V117H76.8965V102.781ZM89.3574 102.781H92.0527V117H88.8594V113.318L89.3574 102.781ZM106.271 109.578V110.213C106.271 111.294 106.122 112.264 105.822 113.123C105.529 113.982 105.109 114.715 104.562 115.32C104.022 115.926 103.378 116.391 102.629 116.717C101.887 117.036 101.063 117.195 100.158 117.195C99.2533 117.195 98.4264 117.036 97.6777 116.717C96.929 116.391 96.278 115.926 95.7246 115.32C95.1777 114.715 94.7546 113.982 94.4551 113.123C94.1556 112.264 94.0059 111.294 94.0059 110.213V109.578C94.0059 108.497 94.1556 107.527 94.4551 106.668C94.7546 105.802 95.1745 105.066 95.7148 104.461C96.2617 103.855 96.9095 103.393 97.6582 103.074C98.4069 102.749 99.2337 102.586 100.139 102.586C101.044 102.586 101.87 102.749 102.619 103.074C103.368 103.393 104.012 103.855 104.553 104.461C105.1 105.066 105.523 105.802 105.822 106.668C106.122 107.527 106.271 108.497 106.271 109.578ZM103.059 110.213V109.559C103.059 108.836 102.993 108.198 102.863 107.645C102.733 107.085 102.544 106.616 102.297 106.238C102.049 105.861 101.743 105.577 101.379 105.389C101.014 105.193 100.601 105.096 100.139 105.096C99.6569 105.096 99.237 105.193 98.8789 105.389C98.5208 105.577 98.2181 105.861 97.9707 106.238C97.7298 106.616 97.5443 107.085 97.4141 107.645C97.2904 108.198 97.2285 108.836 97.2285 109.559V110.213C97.2285 110.929 97.2904 111.567 97.4141 112.127C97.5443 112.68 97.7331 113.149 97.9805 113.533C98.2279 113.917 98.5306 114.207 98.8887 114.402C99.2533 114.598 99.6764 114.695 100.158 114.695C100.62 114.695 101.031 114.598 101.389 114.402C101.753 114.207 102.059 113.917 102.307 113.533C102.554 113.149 102.74 112.68 102.863 112.127C102.993 111.567 103.059 110.929 103.059 110.213ZM112.727 117H109.602L109.621 114.539H112.727C113.436 114.539 114.035 114.376 114.523 114.051C115.012 113.719 115.383 113.23 115.637 112.586C115.891 111.935 116.018 111.144 116.018 110.213V109.559C116.018 108.855 115.946 108.237 115.803 107.703C115.66 107.163 115.448 106.71 115.168 106.346C114.888 105.981 114.54 105.708 114.123 105.525C113.713 105.343 113.241 105.252 112.707 105.252H109.543V102.781H112.707C113.671 102.781 114.549 102.944 115.344 103.27C116.145 103.595 116.835 104.061 117.414 104.666C118 105.271 118.452 105.988 118.771 106.814C119.09 107.641 119.25 108.562 119.25 109.578V110.213C119.25 111.222 119.09 112.143 118.771 112.977C118.452 113.803 118 114.52 117.414 115.125C116.835 115.724 116.148 116.186 115.354 116.512C114.559 116.837 113.684 117 112.727 117ZM111.408 102.781V117H108.225V102.781H111.408ZM130.861 114.539V117H123.293V114.539H130.861ZM124.377 102.781V117H121.193V102.781H124.377ZM129.885 108.504V110.887H123.293V108.504H129.885ZM130.871 102.781V105.252H123.293V102.781H130.871ZM132.424 102.781H137.883C138.97 102.781 139.911 102.944 140.705 103.27C141.506 103.595 142.121 104.077 142.551 104.715C142.98 105.353 143.195 106.141 143.195 107.078C143.195 107.859 143.068 108.523 142.814 109.07C142.561 109.617 142.202 110.07 141.74 110.428C141.285 110.786 140.751 111.076 140.139 111.297L139.104 111.863H134.455L134.436 109.393H137.893C138.368 109.393 138.762 109.308 139.074 109.139C139.387 108.969 139.621 108.732 139.777 108.426C139.94 108.113 140.021 107.749 140.021 107.332C140.021 106.902 139.94 106.531 139.777 106.219C139.615 105.906 139.374 105.669 139.055 105.506C138.742 105.337 138.352 105.252 137.883 105.252H135.607V117H132.424V102.781ZM140.295 117L137.102 110.682L140.461 110.672L143.703 116.854V117H140.295ZM151.262 105.486L147.59 117H144.191L149.455 102.781H151.604L151.262 105.486ZM154.309 117L150.627 105.486L150.246 102.781H152.424L157.707 117H154.309ZM154.152 111.707V114.168H146.74V111.707H154.152ZM164.318 102.781V117H161.145V102.781H164.318ZM168.645 102.781V105.252H156.906V102.781H168.645ZM179.885 114.539V117H172.316V114.539H179.885ZM173.4 102.781V117H170.217V102.781H173.4ZM178.908 108.504V110.887H172.316V108.504H178.908ZM179.895 102.781V105.252H172.316V102.781H179.895Z" fill="white"/>
<path d="M146.951 15.6934L148.317 15.98L148.855 21.1467L151.424 16.6313L152.79 16.9179L148.966 23.3799L147.857 23.1475L146.951 15.6934ZM146.119 15.519L147.534 15.8156L146.678 21.204L146.338 22.8288L144.66 22.4771L146.119 15.519ZM152.207 16.7957L153.627 17.0933L152.168 24.0513L150.486 23.6986L150.826 22.0738L152.207 16.7957Z" fill="#263238"/>
<path d="M160.15 22.5444L160.069 22.8207C159.915 23.3421 159.703 23.7887 159.434 24.1606C159.168 24.5302 158.86 24.8226 158.508 25.0377C158.156 25.2497 157.777 25.3802 157.369 25.4294C156.961 25.4754 156.539 25.4339 156.102 25.3048C155.662 25.1748 155.282 24.9794 154.962 24.7185C154.646 24.4555 154.396 24.1391 154.213 23.7695C154.035 23.3977 153.933 22.984 153.908 22.5286C153.887 22.071 153.953 21.5815 154.107 21.0601L154.189 20.7839C154.343 20.2625 154.553 19.8154 154.819 19.4426C155.089 19.0707 155.397 18.7783 155.745 18.5655C156.097 18.3504 156.477 18.2198 156.884 18.1738C157.296 18.1256 157.721 18.1665 158.162 18.2965C158.599 18.4256 158.975 18.6216 159.291 18.8847C159.611 19.1455 159.861 19.4619 160.039 19.8337C160.219 20.2024 160.321 20.616 160.345 21.0746C160.369 21.5331 160.304 22.0231 160.15 22.5444ZM158.401 22.3284L158.486 22.0427C158.585 21.7055 158.643 21.4002 158.66 21.1267C158.68 20.851 158.66 20.6091 158.599 20.4011C158.538 20.1931 158.438 20.0209 158.298 19.8846C158.163 19.7462 157.99 19.646 157.781 19.5843C157.563 19.5197 157.359 19.5087 157.17 19.5513C156.982 19.5908 156.807 19.6818 156.646 19.8244C156.485 19.9669 156.339 20.1595 156.206 20.402C156.077 20.6423 155.963 20.9311 155.863 21.2682L155.779 21.5539C155.68 21.8879 155.619 22.1923 155.596 22.4671C155.577 22.7397 155.595 22.9811 155.652 23.1913C155.712 23.4025 155.809 23.5773 155.945 23.7158C156.084 23.8552 156.262 23.9571 156.481 24.0217C156.69 24.0835 156.889 24.0931 157.078 24.0505C157.267 24.0079 157.443 23.9137 157.605 23.7681C157.77 23.6233 157.918 23.4312 158.05 23.1918C158.186 22.9502 158.303 22.6624 158.401 22.3284Z" fill="#263238"/>
<path d="M162.264 27.2412L160.786 26.6909L161.255 25.4588L162.724 26.0057C163.029 26.1193 163.314 26.1421 163.579 26.074C163.847 26.0071 164.09 25.8492 164.307 25.6003C164.529 25.3494 164.72 25.0105 164.879 24.5834L164.986 24.2951C165.105 23.9748 165.178 23.6822 165.204 23.4174C165.233 23.1506 165.217 22.9137 165.156 22.7066C165.095 22.4964 164.988 22.316 164.836 22.1655C164.687 22.0161 164.495 21.8977 164.26 21.8103L162.777 21.2582L163.239 20.0181L164.721 20.5702C165.173 20.7383 165.557 20.97 165.875 21.2653C166.196 21.5587 166.441 21.8999 166.609 22.2889C166.78 22.6759 166.869 23.0925 166.873 23.5387C166.881 23.9829 166.797 24.4414 166.621 24.9143L166.517 25.1934C166.342 25.6632 166.106 26.0649 165.808 26.3986C165.513 26.7334 165.175 26.9916 164.795 27.173C164.415 27.3545 164.008 27.4532 163.575 27.469C163.146 27.483 162.709 27.407 162.264 27.2412ZM164.186 20.3708L161.705 27.0333L160.099 26.4353L162.58 19.7728L164.186 20.3708Z" fill="#263238"/>
<path d="M171.337 29.5982L170.8 30.8022L167.34 29.2587L167.877 28.0547L171.337 29.5982ZM170.793 23.0145L167.897 29.5073L166.332 28.8092L169.228 22.3164L170.793 23.0145ZM172.101 26.688L171.581 27.8519L168.567 26.5073L169.086 25.3434L172.101 26.688ZM173.71 24.3153L173.171 25.5238L169.697 23.9744L170.236 22.7659L173.71 24.3153Z" fill="#263238"/>
<path d="M174.933 24.9105L177.413 26.2061C177.898 26.4594 178.281 26.7516 178.564 27.0828C178.846 27.414 179.01 27.7714 179.055 28.1552C179.104 28.5404 179.02 28.9408 178.803 29.3562C178.614 29.7169 178.4 29.989 178.161 30.1725C177.922 30.3561 177.66 30.4745 177.375 30.5276C177.095 30.5794 176.795 30.5864 176.477 30.5487L175.833 30.57L173.751 29.4824L174.355 28.305L175.896 29.11C176.089 29.211 176.267 29.2601 176.43 29.2571C176.593 29.2542 176.74 29.2059 176.87 29.1121C177.004 29.0169 177.118 28.8799 177.211 28.701C177.306 28.5193 177.354 28.3462 177.356 28.1817C177.357 28.0171 177.311 27.8664 177.218 27.7293C177.127 27.5937 176.988 27.4769 176.8 27.3789L175.839 26.877L173.16 32.0053L171.641 31.2116L174.933 24.9105ZM175.09 33.0138L175.153 29.4986L176.767 30.3311L176.751 33.7991L176.717 33.864L175.09 33.0138Z" fill="#263238"/>
<path d="M182.682 30.9196L178.29 34.8241L176.715 33.8703L182.633 29.1433L183.631 29.7479L182.682 30.9196ZM181 36.4661L182.423 30.7627L183.005 29.3684L184.015 29.9807L182.579 37.4224L181 36.4661ZM182.315 34.163L181.63 35.2947L178.51 33.4048L179.196 32.2731L182.315 34.163Z" fill="#263238"/>
<path d="M189.202 33.4311L185.147 39.2703L183.739 38.2927L187.794 32.4534L189.202 33.4311ZM190.959 34.651L190.204 35.7378L185.323 32.3482L186.078 31.2613L190.959 34.651Z" fill="#263238"/>
<path d="M191.971 42.8257L191.154 43.8603L188.18 41.5117L188.997 40.4771L191.971 42.8257ZM193.066 36.311L188.659 41.89L187.314 40.8277L191.721 35.2487L193.066 36.311ZM193.428 40.1934L192.638 41.1934L190.048 39.1475L190.838 38.1474L193.428 40.1934ZM195.572 38.2904L194.752 39.3288L191.767 36.9711L192.587 35.9327L195.572 38.2904Z" fill="#263238"/>
<path d="M227.962 84.3776L226.766 84.931L225.234 81.6205L226.431 81.0671L227.962 84.3776ZM229.232 80.4008L222.78 83.3853L222.06 81.8298L228.513 78.8453L229.232 80.4008ZM231.008 84.2387L224.555 87.2232L223.837 85.6721L230.29 82.6876L231.008 84.2387Z" fill="#263238"/>
<path d="M232.3 87.4928L225.7 90.1361L225.065 88.5496L231.665 85.9063L232.3 87.4928Z" fill="#263238"/>
<path d="M231.579 95.3458L228.817 96.2926C228.652 96.2219 228.456 96.0928 228.23 95.9053C228.008 95.7198 227.785 95.4659 227.561 95.1435C227.337 94.8211 227.142 94.4182 226.977 93.9348C226.824 93.4882 226.756 93.059 226.773 92.6471C226.793 92.2342 226.897 91.8493 227.084 91.4926C227.276 91.1379 227.549 90.8205 227.904 90.5406C228.263 90.2627 228.704 90.0341 229.227 89.8547L229.602 89.7264C230.125 89.547 230.614 89.4585 231.069 89.4608C231.524 89.4631 231.934 89.5446 232.299 89.7052C232.668 89.8678 232.984 90.0983 233.248 90.3967C233.513 90.6981 233.718 91.0583 233.861 91.4771C234.073 92.096 234.147 92.6333 234.083 93.0888C234.022 93.5433 233.854 93.9297 233.577 94.2481C233.304 94.5654 232.95 94.8226 232.515 95.0199L231.982 93.4632C232.193 93.3564 232.361 93.2336 232.485 93.0946C232.614 92.9576 232.691 92.7969 232.717 92.6124C232.747 92.4268 232.719 92.2094 232.633 91.9599C232.567 91.7659 232.464 91.6031 232.326 91.4715C232.189 91.3429 232.017 91.2522 231.81 91.1994C231.606 91.1456 231.367 91.1311 231.093 91.1561C230.82 91.1841 230.515 91.2562 230.176 91.3723L229.793 91.5037C229.457 91.6187 229.172 91.7472 228.939 91.8892C228.706 92.0342 228.525 92.1928 228.395 92.3647C228.269 92.5388 228.193 92.7298 228.168 92.938C228.147 93.1482 228.179 93.3764 228.263 93.6228C228.322 93.7952 228.387 93.9383 228.457 94.052C228.53 94.1646 228.602 94.2535 228.672 94.3188C228.747 94.3861 228.812 94.4345 228.866 94.4639L229.91 94.1061L229.524 92.979L230.637 92.5975L231.579 95.3458Z" fill="#263238"/>
<path d="M233.683 101.234L232.407 101.567L231.484 98.0385L232.76 97.7049L233.683 101.234ZM235.635 97.5435L228.757 99.3423L228.323 97.6842L235.201 95.8854L235.635 97.5435ZM236.705 101.634L229.827 103.433L229.394 101.78L236.272 99.9811L236.705 101.634Z" fill="#263238"/>
<path d="M80.0541 32.15L80.6246 33.3385L77.3848 34.8937L76.8143 33.7051L80.0541 32.15ZM74.8586 28.2203L77.935 34.6295L76.3899 35.3712L73.3135 28.9619L74.8586 28.2203Z" fill="black"/>
<path d="M85.2813 27.4415L85.3894 27.7085C85.5934 28.2124 85.7057 28.6937 85.7264 29.1524C85.7488 29.6069 85.6892 30.0279 85.5476 30.4153C85.4047 30.7998 85.1888 31.1383 84.8999 31.4308C84.6097 31.7204 84.2534 31.9507 83.831 32.1217C83.4055 32.2939 82.9864 32.3776 82.5735 32.3727C82.1624 32.3635 81.7703 32.2711 81.3972 32.0956C81.0259 31.9158 80.6888 31.6554 80.3857 31.3146C80.0844 30.9694 79.8318 30.5449 79.6278 30.0411L79.5197 29.774C79.3157 29.2701 79.2019 28.7894 79.1782 28.3319C79.1576 27.8732 79.2172 27.4523 79.357 27.069C79.4987 26.6816 79.7146 26.3431 80.0047 26.0535C80.2967 25.7597 80.6554 25.5267 81.0808 25.3545C81.5032 25.1835 81.92 25.1026 82.3311 25.1117C82.7439 25.1166 83.136 25.209 83.5073 25.3888C83.8774 25.5656 84.2146 25.8259 84.5189 26.1698C84.8231 26.5137 85.0773 26.9376 85.2813 27.4415ZM83.7781 28.3608L83.6664 28.0847C83.5344 27.7589 83.3897 27.4838 83.2322 27.2596C83.0765 27.0312 82.9102 26.8544 82.7331 26.7295C82.5561 26.6045 82.3705 26.5321 82.1764 26.5123C81.9841 26.4884 81.7868 26.5173 81.5847 26.5991C81.3735 26.6846 81.2071 26.8029 81.0857 26.9539C80.963 27.1019 80.883 27.2818 80.8458 27.4935C80.8086 27.7052 80.8135 27.9473 80.8606 28.2197C80.9095 28.4879 80.9999 28.785 81.1318 29.1108L81.2436 29.3869C81.3743 29.7098 81.516 29.986 81.6687 30.2157C81.8232 30.4411 81.988 30.6185 82.1632 30.7477C82.3415 30.8757 82.5268 30.9517 82.7191 30.9757C82.9144 30.9985 83.1177 30.9671 83.3289 30.8816C83.5311 30.7997 83.6929 30.6833 83.8144 30.5323C83.9359 30.3813 84.0146 30.1984 84.0506 29.9836C84.0896 29.7677 84.0861 29.525 84.0403 29.2556C83.9962 28.9819 83.9088 28.6837 83.7781 28.3608Z" fill="black"/>
<path d="M89.009 29.3847L88.439 22.7912L89.2455 22.5401L89.8478 22.9304L90.3568 29.6401L89.4664 29.9173L89.009 29.3847ZM86.728 23.324L89.8068 29.1874L89.6902 29.8477L88.6599 30.1685L85.1056 23.8292L86.728 23.324ZM92.3514 28.3593L91.5579 21.82L93.1756 21.3163L93.8487 28.5527L92.8231 28.8721L92.3514 28.3593ZM89.8283 22.3586L93.1465 28.1372L93.0468 28.8024L92.1564 29.0797L88.7307 23.268L89.0264 22.6083L89.8283 22.3586Z" fill="black"/>
<path d="M19.7298 95.1415L26.6014 96.965L26.163 98.6168L21.2422 99.9127L25.518 101.047L25.0784 102.704L18.2069 100.88L18.6465 99.2238L23.5673 97.928L19.2915 96.7933L19.7298 95.1415Z" fill="#263238"/>
<path d="M25.4792 88.785L25.7512 88.8796C26.2647 89.0582 26.7007 89.2909 27.0594 89.5777C27.416 89.8603 27.6934 90.1825 27.8914 90.5444C28.0865 90.9052 28.1988 91.2907 28.2284 91.7008C28.255 92.1098 28.1935 92.5296 28.0437 92.96C27.8929 93.3935 27.6796 93.7639 27.4038 94.0712C27.126 94.3744 26.7982 94.6084 26.4203 94.7733C26.0404 94.9341 25.6223 95.0162 25.1662 95.0195C24.7081 95.0187 24.2224 94.929 23.7089 94.7503L23.4368 94.6557C22.9234 94.4771 22.4868 94.2459 22.1271 93.9623C21.7685 93.6755 21.4911 93.3533 21.295 92.9955C21.097 92.6337 20.9846 92.2482 20.958 91.8392C20.9295 91.426 20.9906 91.0026 21.1414 90.5691C21.2911 90.1387 21.5049 89.7719 21.7827 89.4687C22.0585 89.1614 22.3863 88.9274 22.7662 88.7666C23.1431 88.6047 23.5611 88.5227 24.0202 88.5204C24.4794 88.5182 24.9657 88.6064 25.4792 88.785ZM25.1801 90.5214L24.8988 90.4235C24.5667 90.308 24.2645 90.2356 23.9921 90.2063C23.7176 90.1729 23.4751 90.1816 23.2644 90.2324C23.0537 90.2832 22.877 90.375 22.7342 90.508C22.5895 90.6369 22.4813 90.8043 22.4096 91.0103C22.3347 91.2255 22.3141 91.4286 22.3476 91.6195C22.3781 91.8093 22.4607 91.988 22.5954 92.1555C22.7301 92.323 22.9155 92.4788 23.1514 92.6229C23.3853 92.7628 23.6683 92.8906 24.0004 93.0061L24.2817 93.104C24.6106 93.2184 24.9118 93.2939 25.1852 93.3304C25.4565 93.3628 25.6986 93.3556 25.9112 93.309C26.125 93.2593 26.3043 93.17 26.449 93.0411C26.5949 92.9092 26.7052 92.7356 26.7801 92.5204C26.8518 92.3144 26.8708 92.116 26.8373 91.9251C26.8037 91.7342 26.7181 91.5545 26.5802 91.3859C26.4435 91.2142 26.2587 91.0569 26.0259 90.9138C25.791 90.7667 25.5091 90.6358 25.1801 90.5214Z" fill="#263238"/>
<path d="M23.8678 83.7422L25.0396 81.2015C25.2686 80.7049 25.5415 80.3074 25.8584 80.0091C26.1752 79.7107 26.5242 79.5293 26.9052 79.4648C27.2876 79.3974 27.6916 79.4619 28.1173 79.6582C28.4868 79.8286 28.7691 80.0287 28.9642 80.2585C29.1594 80.4883 29.2905 80.7442 29.3576 81.0261C29.4232 81.3037 29.445 81.6023 29.423 81.922L29.476 82.5648L28.4924 84.6975L27.2867 84.1522L28.0147 82.5737C28.1061 82.3757 28.1463 82.1952 28.1353 82.0325C28.1244 81.8697 28.0688 81.7258 27.9688 81.6008C27.8671 81.4714 27.7246 81.3645 27.5414 81.28C27.3552 81.1941 27.1799 81.1545 27.0155 81.1611C26.8511 81.1677 26.7028 81.2212 26.5705 81.3215C26.4395 81.4188 26.3298 81.5636 26.2412 81.7557L25.7872 82.74L31.0414 85.1634L30.3236 86.7197L23.8678 83.7422ZM31.9535 83.1858L28.4395 83.2966L29.1914 81.6431L32.6559 81.488L32.7224 81.5187L31.9535 83.1858Z" fill="#263238"/>
<path d="M27.5498 76.1555L33.8548 79.4403L33.0651 80.9559L26.7601 77.6711L27.5498 76.1555Z" fill="#263238"/>
<path d="M34.5148 74.4353C34.4192 74.3796 34.3252 74.3438 34.2328 74.3277C34.1377 74.31 34.0342 74.3195 33.9225 74.3562C33.8108 74.3928 33.6794 74.4633 33.5284 74.5675C33.3762 74.6672 33.195 74.8104 32.9848 74.9969C32.7376 75.2146 32.4849 75.4159 32.2266 75.6009C31.9656 75.7841 31.7018 75.9301 31.4353 76.0386C31.1659 76.1455 30.895 76.1969 30.6225 76.1928C30.3471 76.187 30.0716 76.1039 29.7959 75.9434C29.5314 75.7895 29.328 75.5921 29.1858 75.3512C29.0407 75.1086 28.955 74.8384 28.9286 74.5406C28.9011 74.2384 28.9315 73.9208 29.0197 73.588C29.1051 73.2536 29.2468 72.9161 29.4449 72.5757C29.7068 72.1255 30.0164 71.7746 30.3737 71.523C30.7298 71.267 31.1079 71.1254 31.5078 71.0982C31.9066 71.0666 32.3001 71.1638 32.6884 71.3897L31.8314 72.8626C31.6766 72.7726 31.5213 72.7255 31.3655 72.7215C31.2113 72.7146 31.0636 72.7549 30.9224 72.8422C30.7812 72.9295 30.655 73.0688 30.5436 73.2602C30.4356 73.4459 30.3729 73.6184 30.3555 73.7777C30.3381 73.9371 30.3584 74.077 30.4164 74.1973C30.4716 74.3161 30.5555 74.4082 30.668 74.4737C30.7609 74.5277 30.86 74.5515 30.9654 74.545C31.0697 74.5341 31.182 74.4997 31.3024 74.4417C31.4244 74.3809 31.5551 74.2987 31.6944 74.1952C31.8353 74.0889 31.9847 73.9649 32.1424 73.8232C32.4364 73.5574 32.7218 73.3355 32.9986 73.1576C33.2742 72.9752 33.5443 72.8443 33.809 72.7648C34.0725 72.6809 34.3331 72.6536 34.5909 72.6831C34.8503 72.7098 35.1095 72.7984 35.3683 72.949C35.6441 73.1095 35.8577 73.3053 36.0094 73.5367C36.161 73.768 36.2532 74.0269 36.2861 74.3135C36.3162 74.5984 36.2882 74.9022 36.2021 75.2249C36.116 75.5477 35.9731 75.8807 35.7733 76.2239C35.59 76.5391 35.3697 76.8271 35.1125 77.0879C34.8541 77.3443 34.5698 77.548 34.2598 77.699C33.9469 77.8484 33.6162 77.9215 33.2678 77.9184C32.9182 77.9108 32.5619 77.8014 32.199 77.5902L33.0634 76.1046C33.2434 76.2094 33.4093 76.2739 33.5609 76.2981C33.7125 76.3223 33.8533 76.3101 33.9833 76.2614C34.1105 76.2111 34.2303 76.1283 34.3426 76.0129C34.4521 75.8958 34.5577 75.7501 34.6592 75.5757C34.7688 75.3872 34.8305 75.2197 34.8442 75.0732C34.855 74.9251 34.831 74.7981 34.7721 74.6923C34.7103 74.5848 34.6246 74.4991 34.5148 74.4353Z" fill="#263238"/>
<path d="M32.4559 67.9194L38.3526 71.8909L37.3952 73.3124L31.4985 69.341L32.4559 67.9194ZM34.8262 64.4001L36.2767 68.6972L36.8386 71.0184L35.3599 70.3993L34.6395 68.6719L33.6452 66.1537L34.8262 64.4001ZM39.5909 70.0522L35.9086 69.7857L35.8392 68.1318L40.7229 68.3715L39.5909 70.0522Z" fill="#263238"/>
<defs>
<filter id="filter0_d_854_5903" x="121.5" y="35.8545" width="126.5" height="92.1455" filterUnits="userSpaceOnUse" color-interpolation-filters="sRGB">
<feFlood flood-opacity="0" result="BackgroundImageFix"/>
<feColorMatrix in="SourceAlpha" type="matrix" values="0 0 0 0 0 0 0 0 0 0 0 0 0 0 0 0 0 0 127 0" result="hardAlpha"/>
<feOffset dx="-2" dy="-4"/>
<feGaussianBlur stdDeviation="2"/>
<feComposite in2="hardAlpha" operator="out"/>
<feColorMatrix type="matrix" values="0 0 0 0 0 0 0 0 0 0 0 0 0 0 0 0 0 0 0.25 0"/>
<feBlend mode="normal" in2="BackgroundImageFix" result="effect1_dropShadow_854_5903"/>
<feBlend mode="normal" in="SourceGraphic" in2="effect1_dropShadow_854_5903" result="shape"/>
</filter>
<filter id="filter1_d_854_5903" x="121.408" y="1.14648" width="92.0137" height="126.651" filterUnits="userSpaceOnUse" color-interpolation-filters="sRGB">
<feFlood flood-opacity="0" result="BackgroundImageFix"/>
<feColorMatrix in="SourceAlpha" type="matrix" values="0 0 0 0 0 0 0 0 0 0 0 0 0 0 0 0 0 0 127 0" result="hardAlpha"/>
<feOffset dx="-2" dy="-4"/>
<feGaussianBlur stdDeviation="2"/>
<feComposite in2="hardAlpha" operator="out"/>
<feColorMatrix type="matrix" values="0 0 0 0 0 0 0 0 0 0 0 0 0 0 0 0 0 0 0.25 0"/>
<feBlend mode="normal" in2="BackgroundImageFix" result="effect1_dropShadow_854_5903"/>
<feBlend mode="normal" in="SourceGraphic" in2="effect1_dropShadow_854_5903" result="shape"/>
</filter>
<filter id="filter2_d_854_5903" x="37.707" y="1" width="91.793" height="127" filterUnits="userSpaceOnUse" color-interpolation-filters="sRGB">
<feFlood flood-opacity="0" result="BackgroundImageFix"/>
<feColorMatrix in="SourceAlpha" type="matrix" values="0 0 0 0 0 0 0 0 0 0 0 0 0 0 0 0 0 0 127 0" result="hardAlpha"/>
<feOffset dx="-2" dy="-4"/>
<feGaussianBlur stdDeviation="2"/>
<feComposite in2="hardAlpha" operator="out"/>
<feColorMatrix type="matrix" values="0 0 0 0 0 0 0 0 0 0 0 0 0 0 0 0 0 0 0.25 0"/>
<feBlend mode="normal" in2="BackgroundImageFix" result="effect1_dropShadow_854_5903"/>
<feBlend mode="normal" in="SourceGraphic" in2="effect1_dropShadow_854_5903" result="shape"/>
</filter>
<filter id="filter3_d_854_5903" x="3.14844" y="35.9004" width="126.652" height="91.8994" filterUnits="userSpaceOnUse" color-interpolation-filters="sRGB">
<feFlood flood-opacity="0" result="BackgroundImageFix"/>
<feColorMatrix in="SourceAlpha" type="matrix" values="0 0 0 0 0 0 0 0 0 0 0 0 0 0 0 0 0 0 127 0" result="hardAlpha"/>
<feOffset dx="-2" dy="-4"/>
<feGaussianBlur stdDeviation="2"/>
<feComposite in2="hardAlpha" operator="out"/>
<feColorMatrix type="matrix" values="0 0 0 0 0 0 0 0 0 0 0 0 0 0 0 0 0 0 0.25 0"/>
<feBlend mode="normal" in2="BackgroundImageFix" result="effect1_dropShadow_854_5903"/>
<feBlend mode="normal" in="SourceGraphic" in2="effect1_dropShadow_854_5903" result="shape"/>
</filter>
</defs>
</svg>
