<svg width="255" height="128" viewBox="0 0 255 128" fill="none" xmlns="http://www.w3.org/2000/svg">
<path d="M255 127.5C255 93.6849 241.567 61.2548 217.656 37.3439C193.745 13.433 161.315 2.55297e-06 127.5 0C93.6849 -2.55297e-06 61.2548 13.433 37.3439 37.3439C13.433 61.2548 5.10594e-06 93.6849 0 127.5L127.5 127.5H255Z" fill="white" fill-opacity="0.85"/>
<g filter="url(#filter0_d_854_5903)">
<path d="M246 128C246 112.373 242.935 96.8984 236.98 82.4607C231.025 68.0229 222.296 54.9045 211.292 43.8543L127.5 128H246Z" fill="black" fill-opacity="0.13" shape-rendering="crispEdges"/>
</g>
<g filter="url(#filter1_d_854_5903)">
<path d="M211.421 43.6224C200.367 32.6409 187.258 23.9442 172.843 18.0289C158.428 12.1135 142.989 9.09541 127.407 9.14678L127.799 127.798L211.421 43.6224Z" fill="black" fill-opacity="0.13" shape-rendering="crispEdges"/>
</g>
<g filter="url(#filter2_d_854_5903)">
<path d="M127.5 9.00001C111.938 9.00001 96.5291 12.078 82.152 18.0583C67.7749 24.0387 54.7116 32.8041 43.7078 43.8543L127.5 128L127.5 9.00001Z" fill="black" fill-opacity="0.13" shape-rendering="crispEdges"/>
</g>
<g filter="url(#filter3_d_854_5903)">
<path d="M43.901 43.9004C32.8832 54.9182 24.1433 67.9984 18.1805 82.3939C12.2177 96.7894 9.14862 112.218 9.14862 127.8H127.801L43.901 43.9004Z" fill="black" fill-opacity="0.13" shape-rendering="crispEdges"/>
</g>
<path d="M228 127.579C228 114.446 225.413 101.443 220.388 89.3103C215.362 77.1777 207.997 66.1538 198.711 56.8679L128 127.579L228 127.579Z" fill="#FA3E3E"/>
<path d="M198.711 56.868C189.425 47.5821 178.401 40.2161 166.268 35.1907C154.136 30.1652 141.132 27.5786 128 27.5786V127.579L198.711 56.868Z" fill="#FF9500"/>
<path d="M128 27.5786C114.868 27.5786 101.864 30.1652 89.7317 35.1907C77.5991 40.2162 66.5752 47.5821 57.2893 56.868L128 127.579V27.5786Z" fill="#03E2B6"/>
<path d="M57.2893 56.868C38.5357 75.6216 28 101.057 28 127.579L128 127.579L57.2893 56.868Z" fill="#1ABC9C"/>
<path d="M145.544 63.9395C147.053 60.5952 149.267 57.6162 152.033 55.2059L162.208 46.3407L163.034 57.3062C163.365 61.6891 162.593 66.085 160.788 70.093L153.391 86.5256C151.533 90.6521 146.69 92.5016 142.555 90.6636C138.389 88.812 136.525 83.9243 138.4 79.7691L145.544 63.9395Z" fill="#263238"/>
<path d="M193 127.5C193 110.394 186.204 93.9877 174.108 81.8916C162.012 69.7955 145.606 63 128.5 63C111.394 63 94.9877 69.7955 82.8916 81.8916C70.7955 93.9877 64 110.394 64 127.5L128.5 127.5H193Z" fill="#263238"/>
<path d="M78.4199 102.781H81.0566L84.4746 112.947L87.8828 102.781H90.5195L85.5391 117H83.4004L78.4199 102.781ZM76.8965 102.781H79.582L80.0801 113.318V117H76.8965V102.781ZM89.3574 102.781H92.0527V117H88.8594V113.318L89.3574 102.781ZM106.271 109.578V110.213C106.271 111.294 106.122 112.264 105.822 113.123C105.529 113.982 105.109 114.715 104.562 115.32C104.022 115.926 103.378 116.391 102.629 116.717C101.887 117.036 101.063 117.195 100.158 117.195C99.2533 117.195 98.4264 117.036 97.6777 116.717C96.929 116.391 96.278 115.926 95.7246 115.32C95.1777 114.715 94.7546 113.982 94.4551 113.123C94.1556 112.264 94.0059 111.294 94.0059 110.213V109.578C94.0059 108.497 94.1556 107.527 94.4551 106.668C94.7546 105.802 95.1745 105.066 95.7148 104.461C96.2617 103.855 96.9095 103.393 97.6582 103.074C98.4069 102.749 99.2337 102.586 100.139 102.586C101.044 102.586 101.87 102.749 102.619 103.074C103.368 103.393 104.012 103.855 104.553 104.461C105.1 105.066 105.523 105.802 105.822 106.668C106.122 107.527 106.271 108.497 106.271 109.578ZM103.059 110.213V109.559C103.059 108.836 102.993 108.198 102.863 107.645C102.733 107.085 102.544 106.616 102.297 106.238C102.049 105.861 101.743 105.577 101.379 105.389C101.014 105.193 100.601 105.096 100.139 105.096C99.6569 105.096 99.237 105.193 98.8789 105.389C98.5208 105.577 98.2181 105.861 97.9707 106.238C97.7298 106.616 97.5443 107.085 97.4141 107.645C97.2904 108.198 97.2285 108.836 97.2285 109.559V110.213C97.2285 110.929 97.2904 111.567 97.4141 112.127C97.5443 112.68 97.7331 113.149 97.9805 113.533C98.2279 113.917 98.5306 114.207 98.8887 114.402C99.2533 114.598 99.6764 114.695 100.158 114.695C100.62 114.695 101.031 114.598 101.389 114.402C101.753 114.207 102.059 113.917 102.307 113.533C102.554 113.149 102.74 112.68 102.863 112.127C102.993 111.567 103.059 110.929 103.059 110.213ZM112.727 117H109.602L109.621 114.539H112.727C113.436 114.539 114.035 114.376 114.523 114.051C115.012 113.719 115.383 113.23 115.637 112.586C115.891 111.935 116.018 111.144 116.018 110.213V109.559C116.018 108.855 115.946 108.237 115.803 107.703C115.66 107.163 115.448 106.71 115.168 106.346C114.888 105.981 114.54 105.708 114.123 105.525C113.713 105.343 113.241 105.252 112.707 105.252H109.543V102.781H112.707C113.671 102.781 114.549 102.944 115.344 103.27C116.145 103.595 116.835 104.061 117.414 104.666C118 105.271 118.452 105.988 118.771 106.814C119.09 107.641 119.25 108.562 119.25 109.578V110.213C119.25 111.222 119.09 112.143 118.771 112.977C118.452 113.803 118 114.52 117.414 115.125C116.835 115.724 116.148 116.186 115.354 116.512C114.559 116.837 113.684 117 112.727 117ZM111.408 102.781V117H108.225V102.781H111.408ZM130.861 114.539V117H123.293V114.539H130.861ZM124.377 102.781V117H121.193V102.781H124.377ZM129.885 108.504V110.887H123.293V108.504H129.885ZM130.871 102.781V105.252H123.293V102.781H130.871ZM132.424 102.781H137.883C138.97 102.781 139.911 102.944 140.705 103.27C141.506 103.595 142.121 104.077 142.551 104.715C142.98 105.353 143.195 106.141 143.195 107.078C143.195 107.859 143.068 108.523 142.814 109.07C142.561 109.617 142.202 110.07 141.74 110.428C141.285 110.786 140.751 111.076 140.139 111.297L139.104 111.863H134.455L134.436 109.393H137.893C138.368 109.393 138.762 109.308 139.074 109.139C139.387 108.969 139.621 108.732 139.777 108.426C139.94 108.113 140.021 107.749 140.021 107.332C140.021 106.902 139.94 106.531 139.777 106.219C139.615 105.906 139.374 105.669 139.055 105.506C138.742 105.337 138.352 105.252 137.883 105.252H135.607V117H132.424V102.781ZM140.295 117L137.102 110.682L140.461 110.672L143.703 116.854V117H140.295ZM151.262 105.486L147.59 117H144.191L149.455 102.781H151.604L151.262 105.486ZM154.309 117L150.627 105.486L150.246 102.781H152.424L157.707 117H154.309ZM154.152 111.707V114.168H146.74V111.707H154.152ZM164.318 102.781V117H161.145V102.781H164.318ZM168.645 102.781V105.252H156.906V102.781H168.645ZM179.885 114.539V117H172.316V114.539H179.885ZM173.4 102.781V117H170.217V102.781H173.4ZM178.908 108.504V110.887H172.316V108.504H178.908ZM179.895 102.781V105.252H172.316V102.781H179.895Z" fill="white"/>
<path d="M146.953 15.6924L148.319 15.979L148.857 21.1457L151.426 16.6304L152.792 16.9169L148.968 23.379L147.859 23.1465L146.953 15.6924ZM146.121 15.5181L147.536 15.8147L146.68 21.203L146.339 22.8278L144.662 22.4761L146.121 15.5181ZM152.209 16.7947L153.629 17.0923L152.17 24.0504L150.488 23.6976L150.828 22.0728L152.209 16.7947Z" fill="#263238"/>
<path d="M160.152 22.5434L160.071 22.8197C159.917 23.3411 159.705 23.7877 159.436 24.1596C159.17 24.5293 158.862 24.8217 158.51 25.0367C158.158 25.2487 157.779 25.3793 157.37 25.4284C156.963 25.4744 156.541 25.4329 156.104 25.3038C155.664 25.1738 155.284 24.9784 154.963 24.7175C154.647 24.4545 154.398 24.1382 154.215 23.7685C154.037 23.3967 153.935 22.9831 153.91 22.5276C153.889 22.07 153.955 21.5805 154.109 21.0592L154.191 20.7829C154.345 20.2615 154.555 19.8144 154.821 19.4416C155.091 19.0698 155.399 18.7774 155.747 18.5645C156.099 18.3494 156.479 18.2188 156.886 18.1728C157.298 18.1246 157.723 18.1655 158.164 18.2955C158.601 18.4246 158.977 18.6206 159.293 18.8837C159.613 19.1445 159.863 19.4609 160.041 19.8327C160.221 20.2014 160.323 20.615 160.347 21.0736C160.371 21.5321 160.306 22.0221 160.152 22.5434ZM158.403 22.3274L158.488 22.0417C158.587 21.7046 158.645 21.3992 158.662 21.1257C158.682 20.85 158.662 20.6081 158.601 20.4001C158.54 20.1921 158.44 20.0199 158.3 19.8837C158.165 19.7452 157.992 19.6451 157.783 19.5833C157.565 19.5187 157.361 19.5078 157.172 19.5504C156.984 19.5898 156.809 19.6808 156.648 19.8234C156.487 19.966 156.34 20.1585 156.208 20.401C156.079 20.6413 155.965 20.9301 155.865 21.2672L155.781 21.5529C155.682 21.8869 155.621 22.1914 155.598 22.4662C155.578 22.7387 155.597 22.9801 155.654 23.1904C155.714 23.4015 155.811 23.5763 155.947 23.7148C156.086 23.8542 156.264 23.9562 156.483 24.0207C156.692 24.0825 156.891 24.0921 157.08 24.0495C157.269 24.0069 157.445 23.9128 157.607 23.7671C157.772 23.6223 157.92 23.4302 158.052 23.1908C158.188 22.9492 158.305 22.6614 158.403 22.3274Z" fill="#263238"/>
<path d="M162.266 27.2402L160.787 26.6899L161.257 25.4578L162.726 26.0047C163.031 26.1183 163.316 26.1411 163.581 26.073C163.849 26.0061 164.092 25.8482 164.309 25.5993C164.531 25.3485 164.722 25.0095 164.881 24.5824L164.988 24.2942C165.107 23.9738 165.18 23.6813 165.206 23.4164C165.235 23.1496 165.219 22.9127 165.158 22.7056C165.097 22.4954 164.99 22.3151 164.838 22.1646C164.689 22.0152 164.497 21.8967 164.262 21.8093L162.779 21.2572L163.241 20.0172L164.723 20.5692C165.175 20.7373 165.559 20.969 165.877 21.2643C166.198 21.5577 166.443 21.8989 166.61 22.2879C166.782 22.6749 166.87 23.0916 166.875 23.5377C166.883 23.9819 166.799 24.4404 166.623 24.9133L166.519 25.1924C166.344 25.6622 166.108 26.0639 165.81 26.3976C165.515 26.7324 165.177 26.9906 164.797 27.1721C164.417 27.3535 164.01 27.4522 163.577 27.4681C163.148 27.482 162.711 27.4061 162.266 27.2402ZM164.188 20.3699L161.707 27.0324L160.101 26.4343L162.582 19.7718L164.188 20.3699Z" fill="#263238"/>
<path d="M171.339 29.5972L170.802 30.8012L167.342 29.2577L167.879 28.0537L171.339 29.5972ZM170.795 23.0136L167.899 29.5064L166.334 28.8082L169.23 22.3154L170.795 23.0136ZM172.103 26.687L171.583 27.8509L168.569 26.5063L169.088 25.3424L172.103 26.687ZM173.711 24.3144L173.172 25.5228L169.699 23.9734L170.238 22.7649L173.711 24.3144Z" fill="#263238"/>
<path d="M174.935 24.9095L177.415 26.2052C177.9 26.4584 178.283 26.7506 178.566 27.0818C178.848 27.413 179.012 27.7705 179.057 28.1542C179.106 28.5395 179.022 28.9398 178.805 29.3553C178.616 29.7159 178.402 29.988 178.163 30.1716C177.924 30.3551 177.662 30.4735 177.377 30.5266C177.097 30.5784 176.797 30.5855 176.479 30.5478L175.834 30.569L173.753 29.4814L174.357 28.3041L175.898 29.109C176.091 29.21 176.269 29.2591 176.432 29.2562C176.595 29.2533 176.742 29.2049 176.872 29.1111C177.006 29.016 177.12 28.8789 177.213 28.7001C177.308 28.5183 177.356 28.3452 177.358 28.1807C177.359 28.0162 177.313 27.8654 177.22 27.7283C177.129 27.5927 176.99 27.476 176.802 27.378L175.841 26.876L173.162 32.0043L171.643 31.2106L174.935 24.9095ZM175.092 33.0128L175.155 29.4977L176.769 30.3302L176.753 33.7981L176.719 33.863L175.092 33.0128Z" fill="#263238"/>
<path d="M182.684 30.9186L178.292 34.8232L176.717 33.8694L182.635 29.1423L183.633 29.7469L182.684 30.9186ZM181.002 36.4651L182.425 30.7618L183.007 29.3674L184.017 29.9797L182.581 37.4214L181.002 36.4651ZM182.317 34.162L181.632 35.2938L178.512 33.4039L179.198 32.2721L182.317 34.162Z" fill="#263238"/>
<path d="M189.204 33.4301L185.149 39.2694L183.741 38.2917L187.796 32.4524L189.204 33.4301ZM190.961 34.65L190.206 35.7369L185.325 32.3472L186.08 31.2604L190.961 34.65Z" fill="#263238"/>
<path d="M191.973 42.8247L191.156 43.8593L188.182 41.5107L188.999 40.4761L191.973 42.8247ZM193.068 36.3101L188.661 41.889L187.316 40.8267L191.723 35.2477L193.068 36.3101ZM193.43 40.1924L192.64 41.1925L190.05 39.1465L190.84 38.1465L193.43 40.1924ZM195.574 38.2894L194.754 39.3278L191.769 36.9701L192.589 35.9317L195.574 38.2894Z" fill="#263238"/>
<path d="M227.964 84.3766L226.768 84.9301L225.236 81.6196L226.433 81.0661L227.964 84.3766ZM229.234 80.3999L222.782 83.3843L222.062 81.8288L228.515 78.8443L229.234 80.3999ZM231.009 84.2377L224.557 87.2222L223.839 85.6711L230.292 82.6866L231.009 84.2377Z" fill="#263238"/>
<path d="M232.302 87.4918L225.702 90.1351L225.067 88.5486L231.666 85.9053L232.302 87.4918Z" fill="#263238"/>
<path d="M231.581 95.3449L228.819 96.2916C228.654 96.2209 228.458 96.0918 228.232 95.9043C228.01 95.7188 227.787 95.4649 227.563 95.1425C227.339 94.8202 227.144 94.4172 226.979 93.9338C226.825 93.4873 226.758 93.0581 226.775 92.6461C226.795 92.2332 226.899 91.8483 227.086 91.4916C227.278 91.1369 227.551 90.8196 227.906 90.5397C228.265 90.2618 228.706 90.0331 229.229 89.8537L229.604 89.7255C230.127 89.546 230.616 89.4575 231.071 89.4598C231.526 89.4622 231.936 89.5436 232.301 89.7042C232.67 89.8669 232.986 90.0974 233.25 90.3957C233.515 90.6972 233.72 91.0573 233.863 91.4761C234.075 92.095 234.149 92.6323 234.085 93.0878C234.024 93.5423 233.856 93.9287 233.579 94.2471C233.306 94.5644 232.952 94.8217 232.517 95.0189L231.984 93.4623C232.195 93.3555 232.363 93.2326 232.487 93.0936C232.616 92.9566 232.693 92.7959 232.719 92.6114C232.749 92.4259 232.72 92.2084 232.635 91.9589C232.569 91.7649 232.466 91.6021 232.328 91.4705C232.191 91.3419 232.019 91.2513 231.812 91.1985C231.607 91.1446 231.369 91.1301 231.095 91.1551C230.822 91.1831 230.517 91.2552 230.178 91.3713L229.795 91.5027C229.459 91.6177 229.174 91.7462 228.941 91.8882C228.708 92.0333 228.527 92.1918 228.397 92.3638C228.271 92.5378 228.195 92.7289 228.17 92.937C228.149 93.1472 228.181 93.3755 228.265 93.6218C228.324 93.7943 228.389 93.9373 228.459 94.051C228.532 94.1636 228.604 94.2526 228.674 94.3178C228.749 94.3852 228.814 94.4335 228.868 94.4629L229.912 94.1051L229.526 92.9781L230.639 92.5965L231.581 95.3449Z" fill="#263238"/>
<path d="M233.685 101.233L232.409 101.566L231.486 98.0375L232.762 97.7039L233.685 101.233ZM235.637 97.5426L228.759 99.3413L228.325 97.6832L235.203 95.8845L235.637 97.5426ZM236.707 101.633L229.829 103.432L229.396 101.779L236.274 99.9801L236.707 101.633Z" fill="#263238"/>
<path d="M80.0541 32.149L80.6246 33.3375L77.3848 34.8927L76.8143 33.7042L80.0541 32.149ZM74.8586 28.2193L77.935 34.6286L76.3899 35.3702L73.3135 28.961L74.8586 28.2193Z" fill="black"/>
<path d="M85.2813 27.4405L85.3894 27.7075C85.5934 28.2114 85.7057 28.6927 85.7264 29.1515C85.7488 29.6059 85.6892 30.0269 85.5476 30.4144C85.4047 30.7988 85.1888 31.1373 84.8999 31.4299C84.6097 31.7194 84.2534 31.9497 83.831 32.1207C83.4055 32.293 82.9864 32.3766 82.5735 32.3717C82.1624 32.3625 81.7703 32.2701 81.3972 32.0946C81.0259 31.9148 80.6888 31.6545 80.3857 31.3136C80.0844 30.9685 79.8318 30.544 79.6278 30.0401L79.5197 29.773C79.3157 29.2692 79.2019 28.7885 79.1782 28.331C79.1576 27.8722 79.2172 27.4513 79.357 27.0681C79.4987 26.6806 79.7146 26.3421 80.0047 26.0526C80.2967 25.7588 80.6554 25.5258 81.0808 25.3535C81.5032 25.1825 81.92 25.1016 82.3311 25.1107C82.7439 25.1157 83.136 25.208 83.5073 25.3878C83.8774 25.5646 84.2146 25.8249 84.5189 26.1688C84.8231 26.5127 85.0773 26.9366 85.2813 27.4405ZM83.7781 28.3598L83.6664 28.0838C83.5344 27.7579 83.3897 27.4829 83.2322 27.2586C83.0765 27.0302 82.9102 26.8535 82.7331 26.7285C82.5561 26.6035 82.3705 26.5311 82.1764 26.5114C81.9841 26.4874 81.7868 26.5163 81.5847 26.5982C81.3735 26.6837 81.2071 26.8019 81.0857 26.953C80.963 27.101 80.883 27.2808 80.8458 27.4925C80.8086 27.7043 80.8135 27.9463 80.8606 28.2188C80.9095 28.487 80.9999 28.784 81.1318 29.1099L81.2436 29.3859C81.3743 29.7088 81.516 29.9851 81.6687 30.2147C81.8232 30.4402 81.988 30.6175 82.1632 30.7467C82.3415 30.8747 82.5268 30.9507 82.7191 30.9747C82.9144 30.9975 83.1177 30.9661 83.3289 30.8806C83.5311 30.7988 83.6929 30.6823 83.8144 30.5313C83.9359 30.3803 84.0146 30.1974 84.0506 29.9827C84.0896 29.7667 84.0861 29.524 84.0403 29.2546C83.9962 28.981 83.9088 28.6827 83.7781 28.3598Z" fill="black"/>
<path d="M89.009 29.3837L88.439 22.7902L89.2455 22.5391L89.8478 22.9294L90.3568 29.6391L89.4664 29.9164L89.009 29.3837ZM86.728 23.323L89.8068 29.1865L89.6902 29.8467L88.6599 30.1675L85.1056 23.8282L86.728 23.323ZM92.3514 28.3583L91.5579 21.819L93.1756 21.3153L93.8487 28.5518L92.8231 28.8711L92.3514 28.3583ZM89.8283 22.3576L93.1465 28.1363L93.0468 28.8015L92.1564 29.0787L88.7307 23.2671L89.0264 22.6073L89.8283 22.3576Z" fill="black"/>
<path d="M19.7298 95.1415L26.6014 96.965L26.163 98.6168L21.2422 99.9127L25.518 101.047L25.0784 102.704L18.2069 100.88L18.6465 99.2238L23.5673 97.928L19.2915 96.7933L19.7298 95.1415Z" fill="#263238"/>
<path d="M25.4792 88.785L25.7512 88.8796C26.2647 89.0582 26.7007 89.2909 27.0594 89.5777C27.416 89.8603 27.6934 90.1825 27.8914 90.5444C28.0865 90.9052 28.1988 91.2907 28.2284 91.7008C28.255 92.1098 28.1935 92.5296 28.0437 92.96C27.8929 93.3935 27.6796 93.7639 27.4038 94.0712C27.126 94.3744 26.7982 94.6084 26.4203 94.7733C26.0404 94.9341 25.6223 95.0162 25.1662 95.0195C24.7081 95.0187 24.2224 94.929 23.7089 94.7503L23.4368 94.6557C22.9234 94.4771 22.4868 94.2459 22.1271 93.9623C21.7685 93.6755 21.4911 93.3533 21.295 92.9955C21.097 92.6337 20.9846 92.2482 20.958 91.8392C20.9295 91.426 20.9906 91.0026 21.1414 90.5691C21.2911 90.1387 21.5049 89.7719 21.7827 89.4687C22.0585 89.1614 22.3863 88.9274 22.7662 88.7666C23.1431 88.6047 23.5611 88.5227 24.0202 88.5204C24.4794 88.5182 24.9657 88.6064 25.4792 88.785ZM25.1801 90.5214L24.8988 90.4235C24.5667 90.308 24.2645 90.2356 23.9921 90.2063C23.7176 90.1729 23.4751 90.1816 23.2644 90.2324C23.0537 90.2832 22.877 90.375 22.7342 90.508C22.5895 90.6369 22.4813 90.8043 22.4096 91.0103C22.3347 91.2255 22.3141 91.4286 22.3476 91.6195C22.3781 91.8093 22.4607 91.988 22.5954 92.1555C22.7301 92.323 22.9155 92.4788 23.1514 92.6229C23.3853 92.7628 23.6683 92.8906 24.0004 93.0061L24.2817 93.104C24.6106 93.2184 24.9118 93.2939 25.1852 93.3304C25.4565 93.3628 25.6986 93.3556 25.9112 93.309C26.125 93.2593 26.3043 93.17 26.449 93.0411C26.5949 92.9092 26.7052 92.7356 26.7801 92.5204C26.8518 92.3144 26.8708 92.116 26.8373 91.9251C26.8037 91.7342 26.7181 91.5545 26.5802 91.3859C26.4435 91.2142 26.2587 91.0569 26.0259 90.9138C25.791 90.7667 25.5091 90.6358 25.1801 90.5214Z" fill="#263238"/>
<path d="M23.8678 83.7422L25.0396 81.2015C25.2686 80.7049 25.5415 80.3074 25.8584 80.0091C26.1752 79.7107 26.5242 79.5293 26.9052 79.4648C27.2876 79.3974 27.6916 79.4619 28.1173 79.6582C28.4868 79.8286 28.7691 80.0287 28.9642 80.2585C29.1594 80.4883 29.2905 80.7442 29.3576 81.0261C29.4232 81.3037 29.445 81.6023 29.423 81.922L29.476 82.5648L28.4924 84.6975L27.2867 84.1522L28.0147 82.5737C28.1061 82.3757 28.1463 82.1952 28.1353 82.0325C28.1244 81.8697 28.0688 81.7258 27.9688 81.6008C27.8671 81.4714 27.7246 81.3645 27.5414 81.28C27.3552 81.1941 27.1799 81.1545 27.0155 81.1611C26.8511 81.1677 26.7028 81.2212 26.5705 81.3215C26.4395 81.4188 26.3298 81.5636 26.2412 81.7557L25.7872 82.74L31.0414 85.1634L30.3236 86.7197L23.8678 83.7422ZM31.9535 83.1858L28.4395 83.2966L29.1914 81.6431L32.6559 81.488L32.7224 81.5187L31.9535 83.1858Z" fill="#263238"/>
<path d="M27.5498 76.1555L33.8548 79.4403L33.0651 80.9559L26.7601 77.6711L27.5498 76.1555Z" fill="#263238"/>
<path d="M34.5148 74.4353C34.4192 74.3796 34.3252 74.3438 34.2328 74.3277C34.1377 74.31 34.0342 74.3195 33.9225 74.3562C33.8108 74.3928 33.6794 74.4633 33.5284 74.5675C33.3762 74.6672 33.195 74.8104 32.9848 74.9969C32.7376 75.2146 32.4849 75.4159 32.2266 75.6009C31.9656 75.7841 31.7018 75.9301 31.4353 76.0386C31.1659 76.1455 30.895 76.1969 30.6225 76.1928C30.3471 76.187 30.0716 76.1039 29.7959 75.9434C29.5314 75.7895 29.328 75.5921 29.1858 75.3512C29.0407 75.1086 28.955 74.8384 28.9286 74.5406C28.9011 74.2384 28.9315 73.9208 29.0197 73.588C29.1051 73.2536 29.2468 72.9161 29.4449 72.5757C29.7068 72.1255 30.0164 71.7746 30.3737 71.523C30.7298 71.267 31.1079 71.1254 31.5078 71.0982C31.9066 71.0666 32.3001 71.1638 32.6884 71.3897L31.8314 72.8626C31.6766 72.7726 31.5213 72.7255 31.3655 72.7215C31.2113 72.7146 31.0636 72.7549 30.9224 72.8422C30.7812 72.9295 30.655 73.0688 30.5436 73.2602C30.4356 73.4459 30.3729 73.6184 30.3555 73.7777C30.3381 73.9371 30.3584 74.077 30.4164 74.1973C30.4716 74.3161 30.5555 74.4082 30.668 74.4737C30.7609 74.5277 30.86 74.5515 30.9654 74.545C31.0697 74.5341 31.182 74.4997 31.3024 74.4417C31.4244 74.3809 31.5551 74.2987 31.6944 74.1952C31.8353 74.0889 31.9847 73.9649 32.1424 73.8232C32.4364 73.5574 32.7218 73.3355 32.9986 73.1576C33.2742 72.9752 33.5443 72.8443 33.809 72.7648C34.0725 72.6809 34.3331 72.6536 34.5909 72.6831C34.8503 72.7098 35.1095 72.7984 35.3683 72.949C35.6441 73.1095 35.8577 73.3053 36.0094 73.5367C36.161 73.768 36.2532 74.0269 36.2861 74.3135C36.3162 74.5984 36.2882 74.9022 36.2021 75.2249C36.116 75.5477 35.9731 75.8807 35.7733 76.2239C35.59 76.5391 35.3697 76.8271 35.1125 77.0879C34.8541 77.3443 34.5698 77.548 34.2598 77.699C33.9469 77.8484 33.6162 77.9215 33.2678 77.9184C32.9182 77.9108 32.5619 77.8014 32.199 77.5902L33.0634 76.1046C33.2434 76.2094 33.4093 76.2739 33.5609 76.2981C33.7125 76.3223 33.8533 76.3101 33.9833 76.2614C34.1105 76.2111 34.2303 76.1283 34.3426 76.0129C34.4521 75.8958 34.5577 75.7501 34.6592 75.5757C34.7688 75.3872 34.8305 75.2197 34.8442 75.0732C34.855 74.9251 34.831 74.7981 34.7721 74.6923C34.7103 74.5848 34.6246 74.4991 34.5148 74.4353Z" fill="#263238"/>
<path d="M32.4559 67.9194L38.3526 71.8909L37.3952 73.3124L31.4985 69.341L32.4559 67.9194ZM34.8262 64.4001L36.2767 68.6972L36.8386 71.0184L35.3599 70.3993L34.6395 68.6719L33.6452 66.1537L34.8262 64.4001ZM39.5909 70.0522L35.9086 69.7857L35.8392 68.1318L40.7229 68.3715L39.5909 70.0522Z" fill="#263238"/>
<defs>
<filter id="filter0_d_854_5903" x="121.5" y="35.8545" width="126.5" height="92.1455" filterUnits="userSpaceOnUse" color-interpolation-filters="sRGB">
<feFlood flood-opacity="0" result="BackgroundImageFix"/>
<feColorMatrix in="SourceAlpha" type="matrix" values="0 0 0 0 0 0 0 0 0 0 0 0 0 0 0 0 0 0 127 0" result="hardAlpha"/>
<feOffset dx="-2" dy="-4"/>
<feGaussianBlur stdDeviation="2"/>
<feComposite in2="hardAlpha" operator="out"/>
<feColorMatrix type="matrix" values="0 0 0 0 0 0 0 0 0 0 0 0 0 0 0 0 0 0 0.25 0"/>
<feBlend mode="normal" in2="BackgroundImageFix" result="effect1_dropShadow_854_5903"/>
<feBlend mode="normal" in="SourceGraphic" in2="effect1_dropShadow_854_5903" result="shape"/>
</filter>
<filter id="filter1_d_854_5903" x="121.408" y="1.14648" width="92.0137" height="126.651" filterUnits="userSpaceOnUse" color-interpolation-filters="sRGB">
<feFlood flood-opacity="0" result="BackgroundImageFix"/>
<feColorMatrix in="SourceAlpha" type="matrix" values="0 0 0 0 0 0 0 0 0 0 0 0 0 0 0 0 0 0 127 0" result="hardAlpha"/>
<feOffset dx="-2" dy="-4"/>
<feGaussianBlur stdDeviation="2"/>
<feComposite in2="hardAlpha" operator="out"/>
<feColorMatrix type="matrix" values="0 0 0 0 0 0 0 0 0 0 0 0 0 0 0 0 0 0 0.25 0"/>
<feBlend mode="normal" in2="BackgroundImageFix" result="effect1_dropShadow_854_5903"/>
<feBlend mode="normal" in="SourceGraphic" in2="effect1_dropShadow_854_5903" result="shape"/>
</filter>
<filter id="filter2_d_854_5903" x="37.707" y="1" width="91.793" height="127" filterUnits="userSpaceOnUse" color-interpolation-filters="sRGB">
<feFlood flood-opacity="0" result="BackgroundImageFix"/>
<feColorMatrix in="SourceAlpha" type="matrix" values="0 0 0 0 0 0 0 0 0 0 0 0 0 0 0 0 0 0 127 0" result="hardAlpha"/>
<feOffset dx="-2" dy="-4"/>
<feGaussianBlur stdDeviation="2"/>
<feComposite in2="hardAlpha" operator="out"/>
<feColorMatrix type="matrix" values="0 0 0 0 0 0 0 0 0 0 0 0 0 0 0 0 0 0 0.25 0"/>
<feBlend mode="normal" in2="BackgroundImageFix" result="effect1_dropShadow_854_5903"/>
<feBlend mode="normal" in="SourceGraphic" in2="effect1_dropShadow_854_5903" result="shape"/>
</filter>
<filter id="filter3_d_854_5903" x="3.14844" y="35.9004" width="126.652" height="91.8994" filterUnits="userSpaceOnUse" color-interpolation-filters="sRGB">
<feFlood flood-opacity="0" result="BackgroundImageFix"/>
<feColorMatrix in="SourceAlpha" type="matrix" values="0 0 0 0 0 0 0 0 0 0 0 0 0 0 0 0 0 0 127 0" result="hardAlpha"/>
<feOffset dx="-2" dy="-4"/>
<feGaussianBlur stdDeviation="2"/>
<feComposite in2="hardAlpha" operator="out"/>
<feColorMatrix type="matrix" values="0 0 0 0 0 0 0 0 0 0 0 0 0 0 0 0 0 0 0.25 0"/>
<feBlend mode="normal" in2="BackgroundImageFix" result="effect1_dropShadow_854_5903"/>
<feBlend mode="normal" in="SourceGraphic" in2="effect1_dropShadow_854_5903" result="shape"/>
</filter>
</defs>
</svg>
