<svg width="187" height="62" viewBox="0 0 187 62" fill="none" xmlns="http://www.w3.org/2000/svg">
<g filter="url(#filter0_d_1370_2005)">
<rect x="4" width="179" height="54" rx="15" fill="white"/>
<rect x="4.5" y="0.5" width="178" height="53" rx="14.5" stroke="#E4E4E4"/>
</g>
<path d="M35.0039 27.7031L37.3594 24.4688L33.8203 23.4141L34.3711 21.6562L37.9102 22.957L37.8047 18.9258H39.5859L39.4688 23.0273L42.9609 21.7266L43.5 23.5195L39.9023 24.5859L42.2109 27.7617L40.7578 28.8516L38.5898 25.4766L36.4688 28.7695L35.0039 27.7031ZM57.3398 27.7031L59.6953 24.4688L56.1562 23.4141L56.707 21.6562L60.2461 22.957L60.1406 18.9258H61.9219L61.8047 23.0273L65.2969 21.7266L65.8359 23.5195L62.2383 24.5859L64.5469 27.7617L63.0938 28.8516L60.9258 25.4766L58.8047 28.7695L57.3398 27.7031ZM79.6758 27.7031L82.0312 24.4688L78.4922 23.4141L79.043 21.6562L82.582 22.957L82.4766 18.9258H84.2578L84.1406 23.0273L87.6328 21.7266L88.1719 23.5195L84.5742 24.5859L86.8828 27.7617L85.4297 28.8516L83.2617 25.4766L81.1406 28.7695L79.6758 27.7031ZM102.012 27.7031L104.367 24.4688L100.828 23.4141L101.379 21.6562L104.918 22.957L104.812 18.9258H106.594L106.477 23.0273L109.969 21.7266L110.508 23.5195L106.91 24.5859L109.219 27.7617L107.766 28.8516L105.598 25.4766L103.477 28.7695L102.012 27.7031ZM124.348 27.7031L126.703 24.4688L123.164 23.4141L123.715 21.6562L127.254 22.957L127.148 18.9258H128.93L128.812 23.0273L132.305 21.7266L132.844 23.5195L129.246 24.5859L131.555 27.7617L130.102 28.8516L127.934 25.4766L125.812 28.7695L124.348 27.7031ZM146.684 27.7031L149.039 24.4688L145.5 23.4141L146.051 21.6562L149.59 22.957L149.484 18.9258H151.266L151.148 23.0273L154.641 21.7266L155.18 23.5195L151.582 24.5859L153.891 27.7617L152.438 28.8516L150.27 25.4766L148.148 28.7695L146.684 27.7031Z" fill="#4880FF"/>
<defs>
<filter id="filter0_d_1370_2005" x="0" y="0" width="187" height="62" filterUnits="userSpaceOnUse" color-interpolation-filters="sRGB">
<feFlood flood-opacity="0" result="BackgroundImageFix"/>
<feColorMatrix in="SourceAlpha" type="matrix" values="0 0 0 0 0 0 0 0 0 0 0 0 0 0 0 0 0 0 127 0" result="hardAlpha"/>
<feOffset dy="4"/>
<feGaussianBlur stdDeviation="2"/>
<feComposite in2="hardAlpha" operator="out"/>
<feColorMatrix type="matrix" values="0 0 0 0 0 0 0 0 0 0 0 0 0 0 0 0 0 0 0.25 0"/>
<feBlend mode="normal" in2="BackgroundImageFix" result="effect1_dropShadow_1370_2005"/>
<feBlend mode="normal" in="SourceGraphic" in2="effect1_dropShadow_1370_2005" result="shape"/>
</filter>
</defs>
</svg>
