<svg width="150" height="166" viewBox="0 0 150 166" fill="none" xmlns="http://www.w3.org/2000/svg">
<path d="M74.7551 20.3613C89.4374 20.3613 103.289 23.5124 116.309 29.8148C129.329 36.1171 140.202 45.2242 148.928 57.1363C149.898 58.3829 150.21 59.491 149.863 60.4606C149.517 61.4302 148.928 62.2612 148.097 62.9538C147.266 63.6464 146.297 63.958 145.189 63.8888C144.08 63.8195 143.111 63.2308 142.28 62.1227C134.662 51.3188 124.862 43.0427 112.881 37.2944C100.899 31.5462 88.1907 28.672 74.7551 28.672C61.3194 28.672 48.7148 31.5462 36.9412 37.2944C25.1677 43.0427 15.4026 51.3188 7.64588 62.1227C6.8148 63.3693 5.84522 64.0619 4.73712 64.2004C3.62902 64.3389 2.65944 64.0619 1.82836 63.3693C0.858776 62.6768 0.270099 61.8111 0.0623305 60.7722C-0.145438 59.7334 0.166215 58.6599 0.997288 57.5518C9.58505 45.7783 20.3544 36.6365 33.3053 30.1264C46.2562 23.6163 60.0728 20.3613 74.7551 20.3613ZM74.7551 39.8915C93.4542 39.8915 109.522 46.1246 122.957 58.5907C136.393 71.0568 143.111 86.5009 143.111 104.923C143.111 111.849 140.652 117.632 135.735 122.272C130.818 126.912 124.827 129.232 117.763 129.232C110.699 129.232 104.639 126.912 99.5834 122.272C94.5277 117.632 91.9998 111.849 91.9998 104.923C91.9998 100.352 90.3031 96.5084 86.9095 93.3919C83.516 90.2753 79.4645 88.7171 74.7551 88.7171C70.0456 88.7171 65.9942 90.2753 62.6006 93.3919C59.2071 96.5084 57.5103 100.352 57.5103 104.923C57.5103 118.359 61.4925 129.578 69.457 138.581C77.4214 147.585 87.7059 153.887 100.311 157.488C101.557 157.904 102.388 158.596 102.804 159.566C103.219 160.536 103.289 161.575 103.012 162.683C102.735 163.652 102.18 164.483 101.349 165.176C100.518 165.868 99.4795 166.076 98.2329 165.799C83.8276 162.198 72.0541 155.03 62.9123 144.295C53.7704 133.56 49.1995 120.436 49.1995 104.923C49.1995 97.9974 51.6928 92.1799 56.6792 87.4705C61.6656 82.7611 67.6909 80.4063 74.7551 80.4063C81.8192 80.4063 87.8445 82.7611 92.8309 87.4705C97.8173 92.1799 100.311 97.9974 100.311 104.923C100.311 109.494 102.042 113.338 105.505 116.454C108.968 119.571 113.054 121.129 117.763 121.129C122.473 121.129 126.489 119.571 129.814 116.454C133.138 113.338 134.8 109.494 134.8 104.923C134.8 88.8556 128.913 75.3506 117.14 64.4082C105.366 53.4657 91.3073 47.9945 74.9628 47.9945C58.6184 47.9945 44.5594 53.4657 32.7858 64.4082C21.0123 75.3506 15.1255 88.7863 15.1255 104.715C15.1255 108.04 15.4372 112.195 16.0605 117.181C16.6838 122.168 18.1728 127.985 20.5275 134.634C20.9431 135.88 20.9084 136.989 20.4236 137.958C19.9388 138.928 19.1424 139.62 18.0343 140.036C16.9262 140.451 15.8527 140.417 14.8139 139.932C13.775 139.447 13.0479 138.651 12.6323 137.543C10.5546 132.141 9.06563 126.773 8.1653 121.441C7.26497 116.108 6.8148 110.602 6.8148 104.923C6.8148 86.5009 13.498 71.0568 26.8645 58.5907C40.2309 46.1246 56.1944 39.8915 74.7551 39.8915ZM74.7551 0C83.6198 0 92.2769 1.07347 100.726 3.22041C109.175 5.36735 117.348 8.44924 125.243 12.4661C126.489 13.1587 127.217 13.9897 127.424 14.9593C127.632 15.9289 127.528 16.8985 127.113 17.8681C126.697 18.8377 126.005 19.5995 125.035 20.1535C124.065 20.7076 122.888 20.6383 121.503 19.9458C114.162 16.2059 106.578 13.3318 98.7523 11.3234C90.9264 9.31495 82.9273 8.31073 74.7551 8.31073C66.7213 8.31073 58.8261 9.24569 51.0695 11.1156C43.3128 12.9855 35.9024 15.9289 28.8382 19.9458C27.7302 20.6383 26.6221 20.8115 25.514 20.4652C24.4059 20.1189 23.5748 19.3917 23.0207 18.2836C22.4667 17.1755 22.3282 16.1713 22.6052 15.271C22.8822 14.3706 23.5748 13.5742 24.6829 12.8816C32.4396 8.72627 40.5425 5.54049 48.9918 3.32429C57.441 1.1081 66.0288 0 74.7551 0ZM74.7551 60.045C87.6367 60.045 98.7177 64.3736 107.998 73.0306C117.278 81.6876 121.918 92.3184 121.918 104.923C121.918 106.17 121.538 107.174 120.776 107.936C120.014 108.697 119.01 109.078 117.763 109.078C116.655 109.078 115.685 108.697 114.854 107.936C114.023 107.174 113.608 106.17 113.608 104.923C113.608 94.5346 109.764 85.8429 102.077 78.8481C94.3892 71.8532 85.282 68.3558 74.7551 68.3558C64.2281 68.3558 55.1902 71.8532 47.6413 78.8481C40.0924 85.8429 36.3179 94.5346 36.3179 104.923C36.3179 116.142 38.2571 125.665 42.1354 133.491C46.0138 141.317 51.6928 149.178 59.1724 157.073C60.0035 157.904 60.419 158.874 60.419 159.982C60.419 161.09 60.0035 162.059 59.1724 162.89C58.3414 163.721 57.3718 164.137 56.2637 164.137C55.1556 164.137 54.186 163.721 53.3549 162.89C45.1827 154.303 38.915 145.542 34.5519 136.608C30.1887 127.674 28.0072 117.112 28.0072 104.923C28.0072 92.3184 32.5781 81.6876 41.7199 73.0306C50.8617 64.3736 61.8734 60.045 74.7551 60.045ZM74.5473 100.768C75.7939 100.768 76.7981 101.183 77.5599 102.014C78.3217 102.845 78.7027 103.815 78.7027 104.923C78.7027 115.311 82.4425 123.83 89.9221 130.479C97.4018 137.127 106.128 140.451 116.101 140.451C116.932 140.451 118.109 140.382 119.633 140.244C121.157 140.105 122.75 139.897 124.412 139.62C125.658 139.343 126.732 139.516 127.632 140.14C128.532 140.763 129.121 141.698 129.398 142.945C129.675 144.053 129.467 145.022 128.775 145.853C128.082 146.684 127.182 147.238 126.074 147.516C123.581 148.208 121.399 148.589 119.529 148.658C117.659 148.727 116.516 148.762 116.101 148.762C103.773 148.762 93.0733 144.607 84.0007 136.296C74.9282 127.985 70.3919 117.528 70.3919 104.923C70.3919 103.815 70.7728 102.845 71.5346 102.014C72.2965 101.183 73.3007 100.768 74.5473 100.768Z" fill="#304DFF"/>
</svg>
